<svg width="16" height="17" viewBox="0 0 16 17" fill="none" xmlns="http://www.w3.org/2000/svg">
<path d="M14.6301 16.5C12.8883 16.5 11.1906 16.0739 9.53682 15.2218C7.88254 14.3702 6.41756 13.2443 5.14188 11.844C3.86566 10.4443 2.8395 8.83689 2.0634 7.02178C1.28676 5.20726 0.898438 3.34444 0.898438 1.43333C0.898438 1.16667 0.97945 0.944444 1.14148 0.766667C1.3035 0.588889 1.50603 0.5 1.74907 0.5H5.03008C5.21911 0.5 5.38789 0.566667 5.53641 0.7C5.68494 0.833333 5.7727 1.0037 5.7997 1.21111L6.32629 4.32222C6.35329 4.52963 6.35005 4.71837 6.31656 4.88844C6.28254 5.05911 6.20477 5.21111 6.08325 5.34444L4.13894 7.52222C4.70603 8.58889 5.41489 9.58889 6.26553 10.5222C7.11616 11.4556 8.05456 12.263 9.08072 12.9444L10.9845 10.8556C11.106 10.7222 11.2648 10.6221 11.4609 10.5551C11.6564 10.4887 11.8486 10.4704 12.0377 10.5L14.8326 11.1222C15.0216 11.1667 15.1769 11.2665 15.2984 11.4218C15.42 11.5776 15.4807 11.7593 15.4807 11.9667V15.5667C15.4807 15.8333 15.3997 16.0556 15.2377 16.2333C15.0757 16.4111 14.8731 16.5 14.6301 16.5Z" fill="#2D3D88"/>
</svg>
