<svg width="58" height="43" viewBox="0 0 58 43" fill="none" xmlns="http://www.w3.org/2000/svg">
<path d="M25.5833 43C25.5833 43 22 43 22 39.4167C22 35.8333 25.5833 25.0833 39.9167 25.0833C54.25 25.0833 57.8333 35.8333 57.8333 39.4167C57.8333 43 54.25 43 54.25 43H25.5833ZM39.9167 21.5C42.7677 21.5 45.502 20.3674 47.5181 18.3514C49.5341 16.3354 50.6667 13.6011 50.6667 10.75C50.6667 7.89892 49.5341 5.16462 47.5181 3.1486C45.502 1.13259 42.7677 0 39.9167 0C37.0656 0 34.3313 1.13259 32.3153 3.1486C30.2993 5.16462 29.1667 7.89892 29.1667 10.75C29.1667 13.6011 30.2993 16.3354 32.3153 18.3514C34.3313 20.3674 37.0656 21.5 39.9167 21.5ZM19.1907 43C18.6597 41.8813 18.3948 40.6548 18.4167 39.4167C18.4167 34.5612 20.8533 29.5625 25.354 26.0867C23.1079 25.3931 20.7672 25.0545 18.4167 25.0833C4.08333 25.0833 0.5 35.8333 0.5 39.4167C0.5 43 4.08333 43 4.08333 43H19.1907ZM16.625 21.5C19.0009 21.5 21.2795 20.5562 22.9595 18.8762C24.6395 17.1962 25.5833 14.9176 25.5833 12.5417C25.5833 10.1658 24.6395 7.88718 22.9595 6.20717C21.2795 4.52715 19.0009 3.58333 16.625 3.58333C14.2491 3.58333 11.9705 4.52715 10.2905 6.20717C8.61049 7.88718 7.66667 10.1658 7.66667 12.5417C7.66667 14.9176 8.61049 17.1962 10.2905 18.8762C11.9705 20.5562 14.2491 21.5 16.625 21.5Z" fill="white"/>
</svg>
