<svg width="46" height="54" viewBox="0 0 46 54" fill="none" xmlns="http://www.w3.org/2000/svg">
<path d="M17.0729 27.7604C16.6023 27.2961 16.2283 26.7432 15.9727 26.1335C15.717 25.5238 15.5847 24.8695 15.5833 24.2084V13.6667H7.33333C5.39018 13.6724 3.52825 14.4469 2.15423 15.8209C0.780204 17.1949 0.0057432 19.0569 0 21V46.6667C0 48.6116 0.772617 50.4769 2.14788 51.8521C3.52315 53.2274 5.38841 54 7.33333 54H23.8333C25.7783 54 27.6435 53.2274 29.0188 51.8521C30.3941 50.4769 31.1667 48.6116 31.1667 46.6667V29.25H20.625C19.9638 29.2492 19.3094 29.117 18.6996 28.8613C18.0899 28.6056 17.537 28.2314 17.0729 27.7604ZM37.125 10.9167H45.1905C45.2808 10.9168 45.3691 10.8902 45.4444 10.8403C45.5196 10.7903 45.5784 10.7193 45.6134 10.6361C45.6484 10.5528 45.6581 10.4611 45.6411 10.3724C45.6242 10.2837 45.5814 10.202 45.5182 10.1375L36.5349 1.00294C36.4711 0.938121 36.3894 0.893763 36.3002 0.87552C36.2111 0.857277 36.1186 0.865973 36.0344 0.900503C35.9502 0.935033 35.8782 0.993833 35.8276 1.06942C35.7769 1.145 35.7499 1.23394 35.75 1.32492V9.54169C35.75 9.90637 35.8949 10.2561 36.1527 10.514C36.4106 10.7718 36.7603 10.9167 37.125 10.9167Z" fill="white"/>
</svg>
