<svg width="54" height="51" viewBox="0 0 54 51" fill="none" xmlns="http://www.w3.org/2000/svg">
<path d="M48.4908 38.25C49.9528 38.25 51.1853 38.76 52.1883 39.78C53.1913 40.8 53.6843 41.99 53.6673 43.35L33.1908 51L15.3408 45.9V22.95H20.3133L38.8518 29.8095C40.1778 30.3365 40.8408 31.2885 40.8408 32.6655C40.8408 33.4645 40.5518 34.1615 39.9738 34.7565C39.3958 35.3515 38.6648 35.666 37.7808 35.7H30.6408L26.1783 33.9915L25.3368 36.3885L30.6408 38.25H48.4908ZM38.2908 3.1365C40.0928 1.0455 42.3878 0 45.1758 0C47.4878 0 49.4428 0.85 51.0408 2.55C52.6388 4.25 53.4888 6.205 53.5908 8.415C53.5908 10.166 52.7408 12.257 51.0408 14.688C49.3408 17.119 47.6663 19.1505 46.0173 20.7825C44.3683 22.4145 41.7928 24.837 38.2908 28.05C34.7548 24.837 32.1538 22.4145 30.4878 20.7825C28.8218 19.1505 27.1473 17.119 25.4643 14.688C23.7813 12.257 22.9568 10.166 22.9908 8.415C22.9908 6.103 23.8153 4.148 25.4643 2.55C27.1133 0.952 29.1023 0.102 31.4313 0C34.1513 0 36.4378 1.0455 38.2908 3.1365ZM0 22.95H10.2408V51H0V22.95Z" fill="white"/>
</svg>
