<svg width="47" height="42" viewBox="0 0 47 42" fill="none" xmlns="http://www.w3.org/2000/svg">
<path d="M33.8229 17.2947C32.9124 18.2052 31.3948 18.2052 30.4843 17.2947L20.0485 6.88219L3.58919 23.3181L2.04833 21.8473C0.736717 20.534 0 18.7539 0 16.8978C0 15.0418 0.736717 13.2616 2.04833 11.9484L11.9472 2.04948C13.2605 0.737867 15.0406 0.00114947 16.8967 0.00114947C18.7527 0.00114947 20.5329 0.737867 21.8461 2.04948L33.8229 14.0029C34.7334 14.9134 34.7334 16.3842 33.8229 17.2947ZM35.4571 12.3453C37.2781 14.1663 37.2781 17.1313 35.4571 18.9523C32.4921 21.9173 29.3637 19.4659 28.8501 18.9523L20.0718 10.174L7.06782 23.178C6.85139 23.394 6.67968 23.6506 6.56252 23.933C6.44537 24.2154 6.38506 24.5182 6.38506 24.824C6.38506 25.1297 6.44537 25.4325 6.56252 25.7149C6.67968 25.9973 6.85139 26.2539 7.06782 26.4699C7.97833 27.3804 9.44916 27.3804 10.383 26.4699L21.1691 15.6838L22.8267 17.3414L12.0406 28.1275C11.8242 28.3435 11.6525 28.6 11.5353 28.8825C11.4182 29.1649 11.3579 29.4676 11.3579 29.7734C11.3579 30.0792 11.4182 30.3819 11.5353 30.6644C11.6525 30.9468 11.8242 31.2033 12.0406 31.4193C12.9511 32.3298 14.422 32.3298 15.3558 31.4193L26.1419 20.6333L27.7995 22.2909L17.0134 33.0769C16.7973 33.2931 16.6258 33.5497 16.5088 33.8321C16.3919 34.1145 16.3316 34.4172 16.3316 34.7229C16.3316 35.0285 16.3919 35.3312 16.5088 35.6136C16.6258 35.896 16.7973 36.1526 17.0134 36.3688C17.2296 36.5849 17.4862 36.7564 17.7686 36.8734C18.051 36.9903 18.3537 37.0506 18.6593 37.0506C18.965 37.0506 19.2677 36.9903 19.5501 36.8734C19.8325 36.7564 20.0891 36.5849 20.3053 36.3688L31.0913 25.5827L32.7489 27.2403L21.9629 38.0264C21.7467 38.2425 21.5753 38.4991 21.4583 38.7815C21.3413 39.0639 21.2811 39.3666 21.2811 39.6723C21.2811 39.978 21.3413 40.2807 21.4583 40.5631C21.5753 40.8455 21.7467 41.1021 21.9629 41.3182C22.3994 41.7548 22.9914 42 23.6088 42C23.9145 42 24.2172 41.9398 24.4996 41.8228C24.782 41.7058 25.0386 41.5344 25.2547 41.3182L44.679 21.8473C45.9906 20.534 46.7273 18.7539 46.7273 16.8978C46.7273 15.0418 45.9906 13.2616 44.679 11.9484L34.7801 2.04948C33.491 0.761753 31.751 0.0268741 29.9291 0.000722541C28.1072 -0.025429 26.3468 0.659204 25.0213 1.9094L35.4571 12.3453Z" fill="white"/>
</svg>
