<svg width="65" height="65" viewBox="0 0 65 65" fill="none" xmlns="http://www.w3.org/2000/svg">
<path d="M61.0078 32.5001C61.0078 48.2451 48.244 61.0089 32.499 61.0089C16.754 61.0089 3.99023 48.2451 3.99023 32.5001C3.99023 16.7552 16.754 3.99136 32.499 3.99136C48.244 3.99136 61.0078 16.7552 61.0078 32.5001ZM6.9728 32.5001C6.9728 46.5979 18.4013 58.0263 32.499 58.0263C46.5967 58.0263 58.0252 46.5979 58.0252 32.5001C58.0252 18.4024 46.5967 6.97393 32.499 6.97393C18.4013 6.97393 6.9728 18.4024 6.9728 32.5001Z" fill="white"/>
<path d="M54.1662 32.7851C54.1662 44.9087 44.3381 54.7368 32.2144 54.7368C20.0908 54.7368 10.2627 44.9087 10.2627 32.7851C10.2627 20.6614 20.0908 10.8333 32.2144 10.8333C44.3381 10.8333 54.1662 20.6614 54.1662 32.7851ZM13.6818 32.7851C13.6818 43.0203 21.9792 51.3177 32.2144 51.3177C42.4497 51.3177 50.747 43.0203 50.747 32.7851C50.747 22.5498 42.4497 14.2525 32.2144 14.2525C21.9792 14.2525 13.6818 22.5498 13.6818 32.7851Z" fill="white"/>
<path d="M47.3248 32.5004C47.3248 40.688 40.6874 47.3254 32.4998 47.3254C24.3122 47.3254 17.6748 40.688 17.6748 32.5004C17.6748 24.3128 24.3122 17.6754 32.4998 17.6754C40.6874 17.6754 47.3248 24.3128 47.3248 32.5004ZM19.9839 32.5004C19.9839 39.4127 25.5875 45.0163 32.4998 45.0163C39.4121 45.0163 45.0157 39.4127 45.0157 32.5004C45.0157 25.5881 39.4121 19.9845 32.4998 19.9845C25.5875 19.9845 19.9839 25.5881 19.9839 32.5004Z" fill="white"/>
<line x1="61.0098" y1="31.7614" x2="65.0011" y2="31.7614" stroke="white" stroke-width="1.47728"/>
<line x1="47.3252" y1="31.7614" x2="49.606" y2="31.7614" stroke="white" stroke-width="1.47728"/>
<line x1="33.2386" y1="61.009" x2="33.2386" y2="65.0004" stroke="white" stroke-width="1.47728"/>
<line x1="33.2386" y1="47.3246" x2="33.2386" y2="49.6054" stroke="white" stroke-width="1.47728"/>
<line x1="31.7614" y1="3.99127" x2="31.7614" y2="-6.7234e-05" stroke="white" stroke-width="1.47728"/>
<line x1="31.7614" y1="17.6754" x2="31.7614" y2="15.3946" stroke="white" stroke-width="1.47728"/>
<line y1="-0.73864" x2="3.99134" y2="-0.73864" transform="matrix(-1 0 0 1 3.99023 32.5)" stroke="white" stroke-width="1.47728"/>
<line y1="-0.73864" x2="2.28077" y2="-0.73864" transform="matrix(-1 0 0 1 17.6748 32.5)" stroke="white" stroke-width="1.47728"/>
<circle cx="32.2152" cy="32.7852" r="3.13605" fill="white"/>
</svg>
