<svg width="32" height="31" viewBox="0 0 32 31" fill="none" xmlns="http://www.w3.org/2000/svg">
<g clip-path="url(#clip0_391_378)">
<path d="M16.4291 0.184083C7.64333 0.180556 0.917415 6.81528 0.912111 15.4905C0.908575 23.8659 7.73174 30.6647 16.1409 30.6664C24.6013 30.6682 31.3927 23.8818 31.3944 15.427C31.3944 7.05689 24.6509 0.187611 16.4291 0.184083ZM20.029 24.6983C19.8204 24.6913 19.5852 24.3527 19.4261 24.1234C18.1 22.2169 16.7898 20.2999 15.4743 18.3864C15.294 18.1253 15.1013 17.8714 14.8573 17.5328C13.5595 19.0318 12.3165 20.471 11.0735 21.9083C10.4776 22.5996 9.81812 23.2469 9.3089 23.9947C8.76078 24.7971 8.07122 24.8271 7.08814 24.6613C7.94745 23.656 8.71658 22.7478 9.49455 21.8466C10.8383 20.2875 12.1591 18.7056 13.5506 17.1889C14.0828 16.6086 13.9944 16.1995 13.5913 15.6228C11.5226 12.6581 9.48394 9.67234 7.43646 6.69183C7.33922 6.55074 7.25258 6.40259 7.05101 6.08338C8.22681 6.08338 12.4738 6.08338 12.4738 6.08338C12.4738 6.08338 16.3902 11.7781 17.1806 12.9209C18.9009 10.9227 20.5877 8.96865 22.2692 7.00928C23.1126 6.02871 23.1108 6.02518 24.6491 6.13981C22.3682 8.79582 20.1651 11.3601 17.9108 13.9844C20.3207 17.4993 22.7395 21.0265 25.275 24.723C23.4026 24.723 21.714 24.7442 20.029 24.6983Z" fill="white"/>
</g>
<defs>
<clipPath id="clip0_391_378">
<rect width="30.4823" height="30.4823" fill="white" transform="translate(0.912109 0.184082)"/>
</clipPath>
</defs>
</svg>
