<svg width="31" height="31" viewBox="0 0 31 31" fill="none" xmlns="http://www.w3.org/2000/svg">
<g clip-path="url(#clip0_391_371)">
<path d="M13.5771 12.377L18.8562 15.4252L13.5771 18.4734V12.377Z" fill="white"/>
<path d="M15.6093 0.184082C7.19169 0.184082 0.368164 7.00761 0.368164 15.4253C0.368164 23.8429 7.19169 30.6664 15.6093 30.6664C24.027 30.6664 30.8505 23.8429 30.8505 15.4253C30.8505 7.00761 24.027 0.184082 15.6093 0.184082ZM25.3456 20.3182C25.1108 21.1921 24.4221 21.8807 23.5483 22.1133C21.9632 22.5378 15.6093 22.5378 15.6093 22.5378C15.6093 22.5378 9.25546 22.5378 7.67038 22.1133C6.79655 21.8807 6.10787 21.1921 5.87305 20.3182C5.44855 18.7331 5.44855 15.4253 5.44855 15.4253C5.44855 15.4253 5.44855 12.1196 5.87305 10.5345C6.10787 9.6607 6.79655 8.97203 7.67038 8.7372C9.25546 8.31271 15.6093 8.31271 15.6093 8.31271C15.6093 8.31271 21.9632 8.31271 23.5483 8.7372C24.4221 8.97203 25.1108 9.6607 25.3456 10.5345C25.7701 12.1196 25.7701 15.4253 25.7701 15.4253C25.7701 15.4253 25.7701 18.7331 25.3456 20.3182Z" fill="white"/>
</g>
<defs>
<clipPath id="clip0_391_371">
<rect width="30.4823" height="30.4823" fill="white" transform="translate(0.368164 0.184082)"/>
</clipPath>
</defs>
</svg>
