<svg width="13" height="15" viewBox="0 0 13 15" fill="none" xmlns="http://www.w3.org/2000/svg">
<path d="M12.6614 10.278L11.3161 9.50443L11.9147 9.343C12.0027 9.32251 12.0856 9.28454 12.1585 9.23135C12.2314 9.17815 12.2929 9.11082 12.3393 9.03336C12.3856 8.9559 12.4159 8.86991 12.4283 8.78049C12.4408 8.69108 12.4351 8.60008 12.4116 8.51292C12.3881 8.42575 12.3473 8.3442 12.2917 8.27314C12.236 8.20207 12.1666 8.14293 12.0876 8.09925C12.0086 8.05557 11.9216 8.02824 11.8318 8.01889C11.742 8.00953 11.6513 8.01835 11.565 8.04481L9.66812 8.55601L7.84528 7.49997L9.66812 6.44393L11.565 6.95513H11.7399C11.9182 6.97832 12.0985 6.9297 12.2411 6.81995C12.3836 6.71021 12.4767 6.54833 12.4999 6.36994C12.5231 6.19154 12.4745 6.01124 12.3648 5.8687C12.255 5.72616 12.0931 5.63305 11.9147 5.60986L11.3161 5.48206L12.6614 4.70852C12.7382 4.66436 12.8056 4.60549 12.8597 4.53527C12.9138 4.46506 12.9535 4.38488 12.9767 4.29931C12.9998 4.21374 13.0058 4.12445 12.9944 4.03655C12.983 3.94865 12.9544 3.86386 12.9102 3.78701C12.8661 3.71016 12.8072 3.64276 12.737 3.58866C12.6668 3.53457 12.5866 3.49483 12.501 3.47172C12.4155 3.44861 12.3262 3.44258 12.2383 3.45397C12.1504 3.46537 12.0656 3.49397 11.9887 3.53813L10.5358 4.38566L10.7376 3.63903C10.7641 3.55272 10.7729 3.46197 10.7635 3.37218C10.7542 3.28239 10.7269 3.19541 10.6832 3.11641C10.6395 3.03741 10.5804 2.96801 10.5093 2.91234C10.4382 2.85668 10.3567 2.81589 10.2695 2.7924C10.1823 2.76892 10.0913 2.76322 10.0019 2.77564C9.91252 2.78807 9.82652 2.81837 9.74906 2.86473C9.67161 2.91109 9.60427 2.97257 9.55108 3.04551C9.49788 3.11844 9.45991 3.20134 9.43943 3.28926L8.88786 5.30717L7.17264 6.33631V4.23095L8.565 2.83859C8.69028 2.71256 8.7606 2.54208 8.7606 2.36438C8.7606 2.18668 8.69028 2.0162 8.565 1.89017C8.50247 1.82712 8.42807 1.77708 8.34611 1.74293C8.26414 1.70879 8.17622 1.6912 8.08743 1.6912C7.99863 1.6912 7.91071 1.70879 7.82874 1.74293C7.74678 1.77708 7.67238 1.82712 7.60985 1.89017L7.17264 2.32738V0.77359C7.17264 0.595195 7.10177 0.424107 6.97563 0.297963C6.84948 0.171819 6.67839 0.100952 6.5 0.100952C6.3216 0.100952 6.15052 0.171819 6.02437 0.297963C5.89823 0.424107 5.82736 0.595195 5.82736 0.77359V2.43501L5.28252 1.89017C5.21999 1.82712 5.1456 1.77708 5.06363 1.74293C4.98167 1.70879 4.89375 1.6912 4.80495 1.6912C4.71616 1.6912 4.62824 1.70879 4.54627 1.74293C4.4643 1.77708 4.38991 1.82712 4.32738 1.89017C4.2021 2.0162 4.13178 2.18668 4.13178 2.36438C4.13178 2.54208 4.2021 2.71256 4.32738 2.83859L5.82736 4.33857V6.35649L4.09868 5.33408L3.54712 3.31616C3.52664 3.22824 3.48867 3.14535 3.43547 3.07241C3.38227 2.99948 3.31494 2.938 3.23748 2.89164C3.16003 2.84527 3.07403 2.81498 2.98461 2.80255C2.8952 2.79012 2.8042 2.79582 2.71704 2.81931C2.62987 2.84279 2.54833 2.88358 2.47726 2.93925C2.40619 2.99491 2.34705 3.06431 2.30337 3.14331C2.25969 3.22231 2.23236 3.3093 2.22301 3.39909C2.21365 3.48887 2.22247 3.57963 2.24893 3.66593L2.46417 4.38566L1.01127 3.55159C0.934425 3.50742 0.849629 3.47882 0.761728 3.46743C0.673828 3.45603 0.584543 3.46206 0.498973 3.48517C0.413402 3.50828 0.333221 3.54802 0.263009 3.60212C0.192796 3.65622 0.133926 3.72361 0.0897595 3.80046C0.0455935 3.87731 0.0169965 3.96211 0.00560121 4.05001C-0.00579409 4.13791 0.000235477 4.22719 0.0233458 4.31276C0.0700191 4.48558 0.183432 4.63278 0.338636 4.72198L1.68391 5.48206L1.1189 5.65694C0.940501 5.68013 0.778626 5.77324 0.66888 5.91578C0.559135 6.05833 0.510509 6.23863 0.533701 6.41702C0.556892 6.59542 0.65 6.75729 0.792543 6.86704C0.935086 6.97678 1.11539 7.02541 1.29378 7.00222H1.46867L3.36551 6.49101L5.15472 7.49997L3.33187 8.55601L1.43504 8.04481C1.34603 8.01176 1.25104 7.99793 1.15631 8.00422C1.06158 8.01051 0.969254 8.03678 0.885405 8.08131C0.801555 8.12584 0.728082 8.18762 0.669817 8.26258C0.611553 8.33754 0.569816 8.42398 0.547352 8.51622C0.524889 8.60847 0.522207 8.70442 0.539483 8.79778C0.55676 8.89113 0.593603 8.97977 0.647591 9.05787C0.701578 9.13597 0.771486 9.20175 0.852718 9.25089C0.933949 9.30003 1.02466 9.33142 1.1189 9.343L1.71754 9.50443L0.372268 10.278C0.217064 10.3672 0.103651 10.5144 0.0569776 10.6872C0.0103043 10.86 0.0341941 11.0443 0.123391 11.1995C0.212589 11.3547 0.359787 11.4681 0.532605 11.5148C0.705422 11.5614 0.889702 11.5376 1.04491 11.4484L2.46417 10.6143L2.26238 11.3609C2.23572 11.447 2.22663 11.5376 2.23566 11.6273C2.24469 11.717 2.27165 11.8039 2.31495 11.883C2.35824 11.962 2.41698 12.0316 2.48768 12.0875C2.55838 12.1434 2.63959 12.1845 2.7265 12.2084C2.78461 12.215 2.84328 12.215 2.90139 12.2084C3.05324 12.2136 3.20239 12.1673 3.32453 12.0769C3.44667 11.9865 3.53461 11.8574 3.57402 11.7107L4.12559 9.69277L5.82736 8.66363V10.769L4.435 12.1614C4.30972 12.2874 4.2394 12.4579 4.2394 12.6356C4.2394 12.8133 4.30972 12.9837 4.435 13.1098C4.4973 13.1733 4.57159 13.2239 4.65356 13.2585C4.73554 13.2932 4.82358 13.3112 4.91257 13.3116C5.00157 13.3112 5.08961 13.2932 5.17158 13.2585C5.25356 13.2239 5.32785 13.1733 5.39015 13.1098L5.82736 12.6726V14.2263C5.82736 14.4047 5.89823 14.5758 6.02437 14.702C6.15052 14.8281 6.3216 14.899 6.5 14.899C6.67839 14.899 6.84948 14.8281 6.97563 14.702C7.10177 14.5758 7.17264 14.4047 7.17264 14.2263V12.5649L7.71747 13.1098C7.78 13.1728 7.8544 13.2229 7.93637 13.257C8.01833 13.2912 8.10625 13.3087 8.19505 13.3087C8.28384 13.3087 8.37176 13.2912 8.45373 13.257C8.5357 13.2229 8.61009 13.1728 8.67262 13.1098C8.7979 12.9837 8.86822 12.8133 8.86822 12.6356C8.86822 12.4579 8.7979 12.2874 8.67262 12.1614L7.17264 10.6614V8.64345L8.90132 9.64569L9.45288 11.6636C9.4923 11.8103 9.58024 11.9394 9.70238 12.0298C9.82452 12.1202 9.97366 12.1666 10.1255 12.1614C10.1836 12.168 10.2423 12.168 10.3004 12.1614C10.3863 12.1387 10.4668 12.0993 10.5374 12.0454C10.608 11.9915 10.6672 11.9241 10.7116 11.8472C10.756 11.7703 10.7847 11.6853 10.7961 11.5972C10.8075 11.5092 10.8013 11.4197 10.778 11.334L10.5358 10.6143L11.9753 11.4484C12.0521 11.4925 12.1369 11.5211 12.2248 11.5325C12.3127 11.5439 12.402 11.5379 12.4876 11.5148C12.5731 11.4917 12.6533 11.4519 12.7235 11.3978C12.7938 11.3437 12.8526 11.2763 12.8968 11.1995C12.941 11.1226 12.9696 11.0378 12.9809 10.9499C12.9923 10.862 12.9863 10.7727 12.9632 10.6872C12.9401 10.6016 12.9004 10.5214 12.8463 10.4512C12.7922 10.381 12.7248 10.3221 12.6479 10.278H12.6614Z" fill="#878787"/>
</svg>
