<svg width="11" height="15" viewBox="0 0 11 15" fill="none" xmlns="http://www.w3.org/2000/svg">
<path d="M9.625 7.15625H1.375V3.71875H9.625M8.59375 11.2812C8.32025 11.2812 8.05794 11.1726 7.86455 10.9792C7.67115 10.7858 7.5625 10.5235 7.5625 10.25C7.5625 9.9765 7.67115 9.71419 7.86455 9.5208C8.05794 9.3274 8.32025 9.21875 8.59375 9.21875C8.86725 9.21875 9.12956 9.3274 9.32295 9.5208C9.51635 9.71419 9.625 9.9765 9.625 10.25C9.625 10.5235 9.51635 10.7858 9.32295 10.9792C9.12956 11.1726 8.86725 11.2812 8.59375 11.2812ZM2.40625 11.2812C2.13275 11.2812 1.87044 11.1726 1.67705 10.9792C1.48365 10.7858 1.375 10.5235 1.375 10.25C1.375 9.9765 1.48365 9.71419 1.67705 9.5208C1.87044 9.3274 2.13275 9.21875 2.40625 9.21875C2.67975 9.21875 2.94206 9.3274 3.13545 9.5208C3.32885 9.71419 3.4375 9.9765 3.4375 10.25C3.4375 10.5235 3.32885 10.7858 3.13545 10.9792C2.94206 11.1726 2.67975 11.2812 2.40625 11.2812ZM0 10.5938C0 11.1987 0.268125 11.7419 0.6875 12.12V13.3438C0.6875 13.5261 0.759933 13.701 0.888864 13.8299C1.0178 13.9588 1.19266 14.0312 1.375 14.0312H2.0625C2.24484 14.0312 2.4197 13.9588 2.54864 13.8299C2.67757 13.701 2.75 13.5261 2.75 13.3438V12.6562H8.25V13.3438C8.25 13.5261 8.32243 13.701 8.45136 13.8299C8.58029 13.9588 8.75516 14.0312 8.9375 14.0312H9.625C9.80734 14.0312 9.98221 13.9588 10.1111 13.8299C10.2401 13.701 10.3125 13.5261 10.3125 13.3438V12.12C10.7319 11.7419 11 11.1987 11 10.5938V3.71875C11 1.3125 8.53875 0.96875 5.5 0.96875C2.46125 0.96875 0 1.3125 0 3.71875V10.5938Z" fill="#878787"/>
</svg>
