<svg width="14" height="13" viewBox="0 0 14 13" fill="none" xmlns="http://www.w3.org/2000/svg">
<path d="M13.2918 11.9168H12.8334V3.7917C12.8334 3.64804 12.7851 3.51026 12.6992 3.40868C12.6132 3.30709 12.4967 3.25002 12.3751 3.25002H8.7084C8.58684 3.25002 8.47026 3.30709 8.38431 3.40868C8.29835 3.51026 8.25006 3.64804 8.25006 3.7917V6.50005H5.50004V0.541671C5.50004 0.398011 5.45175 0.260235 5.3658 0.158652C5.27984 0.0570688 5.16326 0 5.0417 0H1.37501C1.25345 0 1.13687 0.0570688 1.05092 0.158652C0.964962 0.260235 0.916674 0.398011 0.916674 0.541671V11.9168H0.458337C0.336778 11.9168 0.220199 11.9738 0.134244 12.0754C0.0482889 12.177 0 12.3148 0 12.4584C0 12.6021 0.0482889 12.7399 0.134244 12.8414C0.220199 12.943 0.336778 13.0001 0.458337 13.0001H13.2918C13.4133 13.0001 13.5299 12.943 13.6159 12.8414C13.7018 12.7399 13.7501 12.6021 13.7501 12.4584C13.7501 12.3148 13.7018 12.177 13.6159 12.0754C13.5299 11.9738 13.4133 11.9168 13.2918 11.9168ZM3.66669 10.2917C3.66669 10.4354 3.61841 10.5732 3.53245 10.6748C3.4465 10.7763 3.32992 10.8334 3.20836 10.8334C3.0868 10.8334 2.97022 10.7763 2.88426 10.6748C2.79831 10.5732 2.75002 10.4354 2.75002 10.2917V9.2084C2.75002 9.06474 2.79831 8.92697 2.88426 8.82538C2.97022 8.7238 3.0868 8.66673 3.20836 8.66673C3.32992 8.66673 3.4465 8.7238 3.53245 8.82538C3.61841 8.92697 3.66669 9.06474 3.66669 9.2084V10.2917ZM3.66669 7.04172C3.66669 7.18538 3.61841 7.32316 3.53245 7.42474C3.4465 7.52632 3.32992 7.58339 3.20836 7.58339C3.0868 7.58339 2.97022 7.52632 2.88426 7.42474C2.79831 7.32316 2.75002 7.18538 2.75002 7.04172V5.95838C2.75002 5.81472 2.79831 5.67694 2.88426 5.57536C2.97022 5.47378 3.0868 5.41671 3.20836 5.41671C3.32992 5.41671 3.4465 5.47378 3.53245 5.57536C3.61841 5.67694 3.66669 5.81472 3.66669 5.95838V7.04172ZM3.66669 3.7917C3.66669 3.93536 3.61841 4.07313 3.53245 4.17471C3.4465 4.2763 3.32992 4.33337 3.20836 4.33337C3.0868 4.33337 2.97022 4.2763 2.88426 4.17471C2.79831 4.07313 2.75002 3.93536 2.75002 3.7917V2.70835C2.75002 2.56469 2.79831 2.42692 2.88426 2.32533C2.97022 2.22375 3.0868 2.16668 3.20836 2.16668C3.32992 2.16668 3.4465 2.22375 3.53245 2.32533C3.61841 2.42692 3.66669 2.56469 3.66669 2.70835V3.7917ZM7.33339 10.2917C7.33339 10.4354 7.2851 10.5732 7.19914 10.6748C7.11319 10.7763 6.99661 10.8334 6.87505 10.8334C6.75349 10.8334 6.63691 10.7763 6.55096 10.6748C6.465 10.5732 6.41671 10.4354 6.41671 10.2917V9.2084C6.41671 9.06474 6.465 8.92697 6.55096 8.82538C6.63691 8.7238 6.75349 8.66673 6.87505 8.66673C6.99661 8.66673 7.11319 8.7238 7.19914 8.82538C7.2851 8.92697 7.33339 9.06474 7.33339 9.2084V10.2917ZM11.0001 10.2917C11.0001 10.4354 10.9518 10.5732 10.8658 10.6748C10.7799 10.7763 10.6633 10.8334 10.5417 10.8334C10.4202 10.8334 10.3036 10.7763 10.2177 10.6748C10.1317 10.5732 10.0834 10.4354 10.0834 10.2917V9.2084C10.0834 9.06474 10.1317 8.92697 10.2177 8.82538C10.3036 8.7238 10.4202 8.66673 10.5417 8.66673C10.6633 8.66673 10.7799 8.7238 10.8658 8.82538C10.9518 8.92697 11.0001 9.06474 11.0001 9.2084V10.2917ZM11.0001 7.04172C11.0001 7.18538 10.9518 7.32316 10.8658 7.42474C10.7799 7.52632 10.6633 7.58339 10.5417 7.58339C10.4202 7.58339 10.3036 7.52632 10.2177 7.42474C10.1317 7.32316 10.0834 7.18538 10.0834 7.04172V5.95838C10.0834 5.81472 10.1317 5.67694 10.2177 5.57536C10.3036 5.47378 10.4202 5.41671 10.5417 5.41671C10.6633 5.41671 10.7799 5.47378 10.8658 5.57536C10.9518 5.67694 11.0001 5.81472 11.0001 5.95838V7.04172Z" fill="#878787"/>
</svg>
