<svg width="13" height="13" viewBox="0 0 13 13" fill="none" xmlns="http://www.w3.org/2000/svg">
<path d="M12.8233 11.2394L10.2916 8.70822C10.1773 8.59396 10.0224 8.53049 9.85994 8.53049H9.44607C10.1469 7.6342 10.5633 6.50711 10.5633 5.28074C10.5633 2.36361 8.19914 0 5.28176 0C2.36438 0 0 2.36361 0 5.28074C0 8.19787 2.36412 10.5615 5.28176 10.5615C6.50813 10.5615 7.63572 10.1451 8.53201 9.4443V9.85816C8.53201 10.0207 8.59549 10.1755 8.70975 10.2898L11.2414 12.821C11.4801 13.0597 11.8661 13.0597 12.1022 12.821L12.8207 12.1024C13.0594 11.8638 13.0594 11.4781 12.8233 11.2394ZM5.28176 8.93648C3.26219 8.93648 1.62551 7.30285 1.62551 5.28074C1.62551 3.26143 3.25939 1.625 5.28176 1.625C7.30133 1.625 8.93801 3.25863 8.93801 5.28074C8.93801 7.30006 7.30412 8.93648 5.28176 8.93648ZM5.28227 2.84375C4.24684 2.84375 3.40742 3.68291 3.40742 4.71834C3.40742 5.55521 4.63277 7.08094 5.10225 7.63471C5.12427 7.66105 5.1518 7.68225 5.18291 7.69679C5.21401 7.71133 5.24793 7.71887 5.28227 7.71887C5.3166 7.71887 5.35052 7.71133 5.38163 7.69679C5.41273 7.68225 5.44027 7.66105 5.46229 7.63471C5.93176 7.08094 7.15711 5.55547 7.15711 4.71834C7.15711 3.68291 6.3177 2.84375 5.28227 2.84375ZM5.28227 5.28125C4.94559 5.28125 4.67289 5.0083 4.67289 4.67188C4.67289 4.3352 4.94584 4.0625 5.28227 4.0625C5.61869 4.0625 5.89164 4.3352 5.89164 4.67188C5.89164 5.0083 5.61869 5.28125 5.28227 5.28125Z" fill="#878787"/>
</svg>
