<svg width="14" height="11" viewBox="0 0 14 11" fill="none" xmlns="http://www.w3.org/2000/svg">
<path d="M5.83333 10.5C5.83333 10.5 5 10.5 5 9.66667C5 8.83333 5.83333 6.33333 9.16667 6.33333C12.5 6.33333 13.3333 8.83333 13.3333 9.66667C13.3333 10.5 12.5 10.5 12.5 10.5H5.83333ZM9.16667 5.5C9.82971 5.5 10.4656 5.23661 10.9344 4.76777C11.4033 4.29893 11.6667 3.66304 11.6667 3C11.6667 2.33696 11.4033 1.70107 10.9344 1.23223C10.4656 0.763392 9.82971 0.5 9.16667 0.5C8.50362 0.5 7.86774 0.763392 7.3989 1.23223C6.93006 1.70107 6.66667 2.33696 6.66667 3C6.66667 3.66304 6.93006 4.29893 7.3989 4.76777C7.86774 5.23661 8.50362 5.5 9.16667 5.5ZM4.34667 10.5C4.22319 10.2398 4.16158 9.95461 4.16667 9.66667C4.16667 8.5375 4.73333 7.375 5.78 6.56667C5.25765 6.40536 4.71331 6.32664 4.16667 6.33333C0.833333 6.33333 0 8.83333 0 9.66667C0 10.5 0.833333 10.5 0.833333 10.5H4.34667ZM3.75 5.5C4.30253 5.5 4.83244 5.28051 5.22314 4.88981C5.61384 4.4991 5.83333 3.9692 5.83333 3.41667C5.83333 2.86413 5.61384 2.33423 5.22314 1.94353C4.83244 1.55283 4.30253 1.33333 3.75 1.33333C3.19747 1.33333 2.66756 1.55283 2.27686 1.94353C1.88616 2.33423 1.66667 2.86413 1.66667 3.41667C1.66667 3.9692 1.88616 4.4991 2.27686 4.88981C2.66756 5.28051 3.19747 5.5 3.75 5.5Z" fill="#878787"/>
</svg>
