<svg width="13" height="13" viewBox="0 0 13 13" fill="none" xmlns="http://www.w3.org/2000/svg">
<path fill-rule="evenodd" clip-rule="evenodd" d="M10.5903 9.68418L12.4635 11.7939L11.8371 12.5L1.80818 1.20612L2.43455 0.5L4.05364 2.3222C4.83674 1.99621 5.66512 1.8299 6.5 1.83104C9.34109 1.83104 11.8016 3.72644 13 6.48968C12.4485 7.76615 11.6196 8.86498 10.5903 9.68418ZM5.80509 4.29546L8.44823 7.27234C8.58009 6.85695 8.60451 6.40792 8.51865 5.97751C8.43278 5.5471 8.24016 5.153 7.9632 4.84107C7.68623 4.52914 7.33632 4.31219 6.95416 4.21549C6.572 4.11878 6.17332 4.14628 5.8045 4.2948L5.80509 4.29546ZM8.94695 10.6578C8.16363 10.9837 7.33504 11.1498 6.5 11.1483C3.65891 11.1483 1.19836 9.25293 0 6.48968C0.551477 5.21322 1.38037 4.11439 2.40973 3.29519L4.55177 5.70703C4.41991 6.12242 4.39549 6.57145 4.48135 7.00186C4.56722 7.43227 4.75984 7.82636 5.0368 8.1383C5.31376 8.45023 5.66368 8.66717 6.04584 8.76388C6.428 8.86059 6.82668 8.83309 7.1955 8.68457L8.94695 10.6572V10.6578Z" fill="#878787"/>
</svg>
