<svg width="13" height="11" viewBox="0 0 13 11" fill="none" xmlns="http://www.w3.org/2000/svg">
<path d="M4.06253 7.375C4.01585 7.375 3.96917 7.38184 3.92464 7.39629C3.67152 7.47852 3.40531 7.53125 3.12503 7.53125C2.84476 7.53125 2.57855 7.47852 2.32523 7.39629C2.2807 7.38184 2.23421 7.375 2.18753 7.375C0.975422 7.375 -0.00641376 8.36094 3.15523e-05 9.57461C0.00276593 10.0875 0.424446 10.5 0.937532 10.5H5.31253C5.82562 10.5 6.2473 10.0875 6.25003 9.57461C6.25648 8.36094 5.27464 7.375 4.06253 7.375ZM3.12503 6.75C4.16058 6.75 5.00003 5.91055 5.00003 4.875C5.00003 3.83945 4.16058 3 3.12503 3C2.08948 3 1.25003 3.83945 1.25003 4.875C1.25003 5.91055 2.08948 6.75 3.12503 6.75ZM11.5625 0.5H4.06253C3.54554 0.5 3.12503 0.93457 3.12503 1.46855V2.375C3.58245 2.375 4.00589 2.50742 4.37503 2.72266V1.75H11.25V7.375H10V6.125H7.50003V7.375H6.01097C6.38402 7.70098 6.65784 8.13145 6.78616 8.625H11.5625C12.0795 8.625 12.5 8.19043 12.5 7.65645V1.46855C12.5 0.93457 12.0795 0.5 11.5625 0.5Z" fill="#878787"/>
</svg>
