<svg width="11" height="15" viewBox="0 0 11 15" fill="none" xmlns="http://www.w3.org/2000/svg">
<path d="M0 10.3411V3.17855C0 2.66574 0.147453 2.25351 0.442357 1.94184C0.737262 1.63017 1.1364 1.39132 1.63979 1.22527C2.14317 1.05922 2.72852 0.950792 3.39586 0.899982C4.06319 0.849173 4.76457 0.822983 5.5 0.821411C6.26371 0.821411 6.97819 0.84734 7.64343 0.899197C8.30867 0.951054 8.89088 1.05922 9.39007 1.2237C9.88926 1.38817 10.2824 1.62677 10.5694 1.93948C10.8565 2.2522 11 2.66522 11 3.17855V10.3411C11 10.9723 10.78 11.5079 10.34 11.9479C9.90052 12.3874 9.36519 12.6071 8.734 12.6071L9.91257 13.7857V14.1786H9.24707L7.67564 12.6071H3.32436L1.75293 14.1786H1.08821V13.7857L2.26679 12.6071C1.63507 12.6071 1.09948 12.3871 0.66 11.9471C0.22 11.5082 0 10.9728 0 10.3411ZM0.785714 7.10713H5.10714V3.60205H0.785714V7.10713ZM5.89286 7.10713H10.2143V3.60205H5.89286V7.10713ZM2.74686 10.734C2.99881 10.734 3.20833 10.6515 3.37543 10.4865C3.54252 10.3215 3.62633 10.113 3.62686 9.86105C3.62738 9.6091 3.54488 9.39932 3.37936 9.2317C3.21383 9.06408 3.00536 8.98027 2.75393 8.98027C2.5025 8.98027 2.29271 9.06277 2.12457 9.22777C1.95643 9.39277 1.87262 9.60124 1.87314 9.8532C1.87367 10.1051 1.95617 10.3149 2.12064 10.4826C2.28512 10.6502 2.49386 10.734 2.74686 10.734ZM8.24686 10.734C8.49881 10.734 8.70833 10.6515 8.87543 10.4865C9.04252 10.3215 9.12633 10.113 9.12686 9.86105C9.12738 9.6091 9.04488 9.39932 8.87936 9.2317C8.71383 9.06408 8.50536 8.98027 8.25393 8.98027C8.0025 8.98027 7.79271 9.06277 7.62457 9.22777C7.45695 9.39277 7.37314 9.60124 7.37314 9.8532C7.37314 10.1051 7.45564 10.3149 7.62064 10.4826C7.78564 10.6502 7.99412 10.734 8.24607 10.734" fill="#878787"/>
</svg>
