<svg width="43" height="43" viewBox="0 0 43 43" fill="none" xmlns="http://www.w3.org/2000/svg">
<path d="M0 8.6C0 5.36425 1.677 1.978 4.3 0C4.3 1.81675 5.7835 4.3 8.6 4.3C10.3106 4.3 11.9512 4.97955 13.1608 6.18916C14.3705 7.39877 15.05 9.03935 15.05 10.75C15.05 11.5799 14.8802 12.3668 14.5942 13.0956C16.189 14.3613 17.7595 15.6573 19.3049 16.9829L14.8329 21.4549C13.5078 19.909 12.2119 18.3385 10.9457 16.7442C10.1993 17.042 9.40356 17.1967 8.6 17.2C3.8485 17.2 0 13.3515 0 8.6ZM26.1268 23.3232L29.01 20.4401C30.3451 21.1274 31.8234 21.4905 33.325 21.5C35.891 21.5 38.3518 20.4807 40.1663 18.6663C41.9807 16.8518 43 14.391 43 11.825C43 10.2663 42.5958 8.81285 41.9401 7.50995L34.4 15.05L30.1 10.75L37.6401 3.20995C36.3049 2.5226 34.8266 2.15947 33.325 2.15C30.759 2.15 28.2982 3.16933 26.4837 4.98374C24.6693 6.79816 23.65 9.25903 23.65 11.825C23.65 13.3838 24.0542 14.8372 24.71 16.1401L2.15 38.7L6.45 43L21.1732 28.2768C25.2224 32.4314 29.5134 36.3433 34.0238 39.9922L37.0875 42.4625L40.3125 39.2375L37.8422 36.1738C34.1933 31.6634 30.2814 27.3724 26.1268 23.3232Z" fill="white"/>
</svg>
