<svg width="47" height="47" viewBox="0 0 47 47" fill="none" xmlns="http://www.w3.org/2000/svg">
<path fill-rule="evenodd" clip-rule="evenodd" d="M47 23.5C47 36.479 36.479 47 23.5 47C10.521 47 0 36.479 0 23.5C0 10.521 10.521 0 23.5 0C36.479 0 47 10.521 47 23.5ZM23.5 7.6375C23.9674 7.6375 24.4157 7.82319 24.7463 8.15372C25.0768 8.48426 25.2625 8.93256 25.2625 9.4V10.1449C29.093 10.8311 32.3125 13.7099 32.3125 17.625C32.3125 18.0924 32.1268 18.5407 31.7963 18.8713C31.4657 19.2018 31.0174 19.3875 30.55 19.3875C30.0826 19.3875 29.6343 19.2018 29.3037 18.8713C28.9732 18.5407 28.7875 18.0924 28.7875 17.625C28.7875 16.0317 27.4621 14.342 25.2625 13.7404V21.895C29.093 22.5812 32.3125 25.4599 32.3125 29.375C32.3125 33.2901 29.093 36.1688 25.2625 36.855V37.6C25.2625 38.0674 25.0768 38.5157 24.7463 38.8463C24.4157 39.1768 23.9674 39.3625 23.5 39.3625C23.0326 39.3625 22.5843 39.1768 22.2537 38.8463C21.9232 38.5157 21.7375 38.0674 21.7375 37.6V36.855C17.907 36.1688 14.6875 33.2901 14.6875 29.375C14.6875 28.9076 14.8732 28.4593 15.2037 28.1287C15.5343 27.7982 15.9826 27.6125 16.45 27.6125C16.9174 27.6125 17.3657 27.7982 17.6963 28.1287C18.0268 28.4593 18.2125 28.9076 18.2125 29.375C18.2125 30.9683 19.5379 32.658 21.7375 33.2572V25.105C17.907 24.4188 14.6875 21.5401 14.6875 17.625C14.6875 13.7099 17.907 10.8311 21.7375 10.1449V9.4C21.7375 8.93256 21.9232 8.48426 22.2537 8.15372C22.5843 7.82319 23.0326 7.6375 23.5 7.6375Z" fill="white"/>
</svg>
