<svg width="49" height="55" viewBox="0 0 49 55" fill="none" xmlns="http://www.w3.org/2000/svg">
<path d="M29.1905 26.5833C29.2808 26.5834 29.3691 26.5568 29.4444 26.5069C29.5196 26.457 29.5784 26.3859 29.6134 26.3027C29.6484 26.2195 29.6581 26.1277 29.6411 26.039C29.6242 25.9504 29.5814 25.8686 29.5182 25.8042L20.5349 16.6696C20.4711 16.6047 20.3894 16.5604 20.3002 16.5421C20.2111 16.5239 20.1186 16.5326 20.0344 16.5671C19.9502 16.6017 19.8782 16.6605 19.8276 16.736C19.7769 16.8116 19.7499 16.9006 19.75 16.9915V25.2083C19.75 25.573 19.8949 25.9227 20.1527 26.1806C20.4106 26.4385 20.7603 26.5833 21.125 26.5833H29.1905Z" fill="white"/>
<path d="M17.5729 28.7604C17.1023 28.2961 16.7283 27.7432 16.4727 27.1335C16.217 26.5238 16.0847 25.8695 16.0833 25.2084V14.6667H7.83333C5.89018 14.6724 4.02825 15.4469 2.65423 16.8209C1.2802 18.1949 0.505743 20.0569 0.5 22V47.6667C0.5 49.6116 1.27262 51.4769 2.64788 52.8521C4.02315 54.2274 5.88841 55 7.83333 55H24.3333C26.2783 55 28.1435 54.2274 29.5188 52.8521C30.8941 51.4769 31.6667 49.6116 31.6667 47.6667V30.25H21.125C20.4638 30.2492 19.8094 30.117 19.1996 29.8613C18.5899 29.6056 18.037 29.2314 17.5729 28.7604ZM37.625 11.9167H45.6905C45.7808 11.9168 45.8691 11.8902 45.9444 11.8403C46.0196 11.7903 46.0784 11.7193 46.1134 11.6361C46.1484 11.5528 46.1581 11.4611 46.1411 11.3724C46.1242 11.2837 46.0814 11.202 46.0182 11.1375L37.0349 2.00294C36.9711 1.93812 36.8894 1.89376 36.8002 1.87552C36.7111 1.85728 36.6186 1.86597 36.5344 1.9005C36.4502 1.93503 36.3782 1.99383 36.3276 2.06942C36.2769 2.145 36.2499 2.23394 36.25 2.32492V10.5417C36.25 10.9064 36.3949 11.2561 36.6527 11.514C36.9106 11.7718 37.2603 11.9167 37.625 11.9167Z" fill="white"/>
<path d="M37.6257 15.5833C36.2917 15.5731 35.0152 15.0387 34.0719 14.0954C33.1286 13.1521 32.5942 11.8757 32.584 10.5417V0H20.209C18.3863 0.00212278 16.6388 0.727133 15.35 2.01599C14.0611 3.30484 13.3361 5.05229 13.334 6.875V11H18.1602C18.7763 11.0024 19.3857 11.1265 19.9537 11.3653C20.5216 11.604 21.0367 11.9526 21.4694 12.391L33.9773 25.1098C34.85 25.9951 35.3373 27.1896 35.3328 28.4327V44H41.4115C45.1366 44 48.1662 40.9154 48.1662 37.125V15.5833H37.6257Z" fill="white"/>
</svg>
