<svg width="45" height="43" viewBox="0 0 45 43" fill="none" xmlns="http://www.w3.org/2000/svg">
<path fill-rule="evenodd" clip-rule="evenodd" d="M38.0006 42.1671H8.06073C5.92289 42.1671 3.87261 41.3179 2.36093 39.8062C0.849253 38.2945 0 36.2442 0 34.1064V4.03525C0 1.57788 2.43204 0.0187071 4.57159 0.760294C4.87789 0.866235 5.17729 1.02054 5.46287 1.22551L5.86591 1.5134C6.84622 2.20899 8.01899 2.58168 9.22101 2.57962C10.423 2.57755 11.5945 2.20083 12.5724 1.50188C13.9452 0.524954 15.5881 0 17.273 0C18.9578 0 20.6008 0.524954 21.9736 1.50188C22.9515 2.20083 24.123 2.57755 25.325 2.57962C26.527 2.58168 27.6998 2.20899 28.6801 1.5134L29.0831 1.22551C31.3701 -0.409663 34.546 1.22551 34.546 4.03525V21.4395H42.6067C43.0648 21.4395 43.5042 21.6215 43.8281 21.9454C44.152 22.2694 44.334 22.7087 44.334 23.1668V35.8337C44.334 37.5134 43.6668 39.1243 42.479 40.3121C41.2913 41.4998 39.6803 42.1671 38.0006 42.1671ZM35.1218 24.8941V35.8337C35.1218 36.5972 35.4251 37.3294 35.965 37.8693C36.5048 38.4092 37.2371 38.7125 38.0006 38.7125C38.7641 38.7125 39.4963 38.4092 40.0362 37.8693C40.5761 37.3294 40.8794 36.5972 40.8794 35.8337V24.8941H35.1218ZM25.3337 15.1061C25.3337 14.648 25.1517 14.2086 24.8278 13.8847C24.5039 13.5608 24.0645 13.3788 23.6064 13.3788H9.78803C9.32992 13.3788 8.89058 13.5608 8.56665 13.8847C8.24271 14.2086 8.06073 14.648 8.06073 15.1061C8.06073 15.5642 8.24271 16.0035 8.56665 16.3275C8.89058 16.6514 9.32992 16.8334 9.78803 16.8334H23.6064C24.0645 16.8334 24.5039 16.6514 24.8278 16.3275C25.1517 16.0035 25.3337 15.5642 25.3337 15.1061ZM23.0307 22.0153C23.0307 21.5572 22.8487 21.1178 22.5247 20.7939C22.2008 20.47 21.7615 20.288 21.3034 20.288H9.78803C9.32992 20.288 8.89058 20.47 8.56665 20.7939C8.24271 21.1178 8.06073 21.5572 8.06073 22.0153C8.06073 22.4734 8.24271 22.9127 8.56665 23.2367C8.89058 23.5606 9.32992 23.7426 9.78803 23.7426H21.3034C21.7615 23.7426 22.2008 23.5606 22.5247 23.2367C22.8487 22.9127 23.0307 22.4734 23.0307 22.0153ZM23.6064 27.1972C24.0645 27.1972 24.5039 27.3792 24.8278 27.7031C25.1517 28.027 25.3337 28.4664 25.3337 28.9245C25.3337 29.3826 25.1517 29.8219 24.8278 30.1459C24.5039 30.4698 24.0645 30.6518 23.6064 30.6518H9.78803C9.32992 30.6518 8.89058 30.4698 8.56665 30.1459C8.24271 29.8219 8.06073 29.3826 8.06073 28.9245C8.06073 28.4664 8.24271 28.027 8.56665 27.7031C8.89058 27.3792 9.32992 27.1972 9.78803 27.1972H23.6064Z" fill="white"/>
</svg>
