<svg width="51" height="47" viewBox="0 0 51 47" fill="none" xmlns="http://www.w3.org/2000/svg">
<path fill-rule="evenodd" clip-rule="evenodd" d="M1.22834e-08 2.31818C1.22834e-08 1.70336 0.244236 1.11372 0.67898 0.67898C1.11372 0.244236 1.70336 0 2.31818 0H27.8182C28.433 0 29.0226 0.244236 29.4574 0.67898C29.8921 1.11372 30.1364 1.70336 30.1364 2.31818V13.9091H39.4091C40.9312 13.9091 42.4385 14.2089 43.8447 14.7914C45.251 15.3739 46.5288 16.2277 47.6051 17.304C48.6814 18.3803 49.5352 19.6581 50.1177 21.0644C50.7002 22.4706 51 23.9779 51 25.5V34.7727C51.0002 36.2651 50.5206 37.7179 49.6319 38.9168C48.7432 40.1156 47.4925 40.9969 46.0646 41.4305C45.6394 42.833 44.7821 44.0654 43.6149 44.9517C42.4477 45.838 41.0304 46.3329 39.5653 46.3658C38.1001 46.3987 36.662 45.9679 35.4562 45.1349C34.2505 44.3019 33.3386 43.1093 32.851 41.7273H18.1514C17.6637 43.1093 16.7519 44.3019 15.5461 45.1349C14.3403 45.9679 12.9022 46.3987 11.4371 46.3658C9.97189 46.3329 8.55457 45.838 7.38741 44.9517C6.22024 44.0654 5.36289 42.833 4.93773 41.4305C3.50936 40.9973 2.25819 40.1162 1.36904 38.9173C0.479891 37.7184 -8.86582e-05 36.2654 1.22834e-08 34.7727V25.5H13.9091C14.5239 25.5 15.1135 25.2558 15.5483 24.821C15.983 24.3863 16.2273 23.7966 16.2273 23.1818C16.2273 22.567 15.983 21.9774 15.5483 21.5426C15.1135 21.1079 14.5239 20.8636 13.9091 20.8636H1.22834e-08V16.2273H9.27273C9.88755 16.2273 10.4772 15.983 10.9119 15.5483C11.3467 15.1135 11.5909 14.5239 11.5909 13.9091C11.5909 13.2943 11.3467 12.7046 10.9119 12.2699C10.4772 11.8351 9.88755 11.5909 9.27273 11.5909H1.22834e-08V2.31818ZM30.1364 37.0909H32.851C33.3092 35.7938 34.142 34.6617 35.2437 33.8379C36.3455 33.0141 37.6669 32.5355 39.0407 32.4628C40.4145 32.3901 41.779 32.7265 42.9616 33.4294C44.1442 34.1323 45.0918 35.1702 45.6844 36.4117C45.9 36.1967 46.071 35.9412 46.1875 35.66C46.3041 35.3787 46.3639 35.0772 46.3636 34.7727V25.5C46.3636 23.6555 45.6309 21.8866 44.3267 20.5824C43.0225 19.2782 41.2536 18.5455 39.4091 18.5455H30.1364V37.0909ZM13.9091 39.4091C13.9091 38.7943 13.6649 38.2046 13.2301 37.7699C12.7954 37.3351 12.2057 37.0909 11.5909 37.0909C10.9761 37.0909 10.3865 37.3351 9.95171 37.7699C9.51696 38.2046 9.27273 38.7943 9.27273 39.4091C9.27273 40.0239 9.51696 40.6136 9.95171 41.0483C10.3865 41.483 10.9761 41.7273 11.5909 41.7273C12.2057 41.7273 12.7954 41.483 13.2301 41.0483C13.6649 40.6136 13.9091 40.0239 13.9091 39.4091ZM37.7701 37.7701C37.5542 37.9849 37.3831 38.2403 37.2665 38.5216C37.1499 38.8029 37.0902 39.1046 37.0909 39.4091C37.0908 39.9454 37.2766 40.4652 37.6168 40.8799C37.957 41.2945 38.4304 41.5784 38.9564 41.6831C39.4824 41.7879 40.0284 41.707 40.5015 41.4542C40.9745 41.2015 41.3453 40.7926 41.5506 40.2971C41.756 39.8016 41.7832 39.2503 41.6276 38.737C41.472 38.2238 41.1432 37.7803 40.6973 37.4823C40.2514 37.1843 39.716 37.05 39.1822 37.1025C38.6485 37.155 38.1494 37.3909 37.7701 37.7701Z" fill="white"/>
</svg>
