<svg width="28" height="28" viewBox="0 0 28 28" fill="none" xmlns="http://www.w3.org/2000/svg">
<rect width="28" height="27.2409" rx="13.6204" fill="#29428D"/>
<path d="M10.0363 8.60287C10.0361 8.9831 9.88491 9.34769 9.6159 9.61643C9.3469 9.88516 8.98216 10.036 8.60192 10.0358C8.22168 10.0357 7.85709 9.88442 7.58836 9.61542C7.31962 9.34641 7.16876 8.98167 7.16895 8.60143C7.16914 8.22119 7.32037 7.8566 7.58937 7.58787C7.85837 7.31913 8.22312 7.16827 8.60335 7.16846C8.98359 7.16865 9.34818 7.31988 9.61692 7.58888C9.88565 7.85789 10.0365 8.22263 10.0363 8.60287ZM10.0793 11.0975H7.21196V20.0724H10.0793V11.0975ZM14.6098 11.0975H11.7568V20.0724H14.5811V15.3627C14.5811 12.7391 18.0005 12.4953 18.0005 15.3627V20.0724H20.832V14.3878C20.832 9.96487 15.7711 10.1297 14.5811 12.3018L14.6098 11.0975Z" fill="white"/>
</svg>
