<svg width="14" height="14" viewBox="0 0 14 14" fill="none" xmlns="http://www.w3.org/2000/svg">
<path d="M3.03633 1.60287C3.03614 1.9831 2.88491 2.34769 2.6159 2.61643C2.3469 2.88516 1.98216 3.03603 1.60192 3.03584C1.22168 3.03565 0.857092 2.88442 0.588357 2.61542C0.319622 2.34641 0.168755 1.98167 0.168945 1.60143C0.169136 1.22119 0.320367 0.856604 0.589371 0.587869C0.858375 0.319134 1.22312 0.168267 1.60335 0.168457C1.98359 0.168647 2.34818 0.319879 2.61692 0.588883C2.88565 0.857886 3.03652 1.22263 3.03633 1.60287ZM3.07934 4.09749H0.211956V13.0724H3.07934V4.09749ZM7.60981 4.09749H4.75676V13.0724H7.58113V8.36272C7.58113 5.73907 11.0005 5.49534 11.0005 8.36272V13.0724H13.832V7.38781C13.832 2.96487 8.7711 3.12975 7.58113 5.30179L7.60981 4.09749Z" fill="white"/>
</svg>
