<svg width="306" height="306" viewBox="0 0 306 306" fill="none" xmlns="http://www.w3.org/2000/svg">
<g clip-path="url(#clip0_77_692)">
<path d="M306 152.995C305.894 237.895 237.597 306.016 152.595 306C68.3787 305.983 0 237.421 0 153.004C0 68.251 68.7546 -0.311074 153.413 -0.000505453C237.956 0.318236 306.098 68.6433 306 152.995ZM304.447 152.955C304.603 69.7794 236.943 1.78118 153.78 1.55234C69.7026 1.3235 1.72438 68.7986 1.56093 152.644C1.39748 236.244 68.9344 304.283 152.228 304.447C236.583 304.61 304.284 237.225 304.447 152.955Z" fill="#D33C92"/>
<path d="M22.1719 153.225C22.1719 80.4945 80.5802 22.1648 153.388 22.1566C225.208 22.1566 283.869 80.895 283.836 152.767C283.804 225.53 225.42 283.843 152.604 283.843C80.7927 283.843 22.1719 225.138 22.1719 153.225ZM24.5909 153.143C24.4847 223.503 81.994 281.302 152.22 281.416C223.794 281.53 281.27 224.427 281.417 153.061C281.556 82.5949 224.145 24.7065 153.993 24.5758C82.1166 24.445 24.6972 81.4916 24.5909 153.143Z" fill="#D33C92"/>
<path d="M261.689 153.102C261.607 213.246 212.875 261.752 152.596 261.687C92.7979 261.621 44.2292 212.723 44.3273 152.685C44.4335 92.8191 93.2638 44.2152 153.217 44.3051C213.137 44.4031 261.771 93.1787 261.689 153.102ZM153.127 47.5824C95.078 47.5088 47.7189 94.6417 47.5963 152.587C47.4737 210.917 94.5632 258.328 152.702 258.426C211.184 258.516 258.371 211.375 258.412 152.808C258.453 94.9114 211.167 47.6559 153.127 47.5824Z" fill="#D33C92"/>
<path d="M239.534 152.996C239.534 200.864 200.706 239.514 152.612 239.538C105.547 239.555 66.5315 200.546 66.4825 153.421C66.4334 105.364 105.195 66.4126 153.004 66.4617C200.723 66.5107 239.534 105.324 239.534 152.996ZM152.522 235.419C198.165 235.599 235.341 198.829 235.374 153.069C235.406 109.132 201.189 71.725 155.129 70.7197C107.745 69.6818 70.7321 106.656 70.5769 153.756C70.4298 198.028 107.761 235.239 152.522 235.419Z" fill="#D33C92"/>
<path d="M217.354 153.118C217.199 188.728 188.293 217.439 152.686 217.349C117.487 217.259 88.3931 187.968 88.6546 152.881C88.9243 117.158 117.757 88.512 153.323 88.6346C188.571 88.7572 217.509 117.902 217.354 153.118ZM212.361 151.893C211.323 118.768 184.288 92.672 151.999 93.6364C118.819 94.6253 92.6427 121.825 93.6398 154.304C94.645 187.207 122.088 213.516 154.206 212.372C187.304 211.195 213.374 184.085 212.361 151.893Z" fill="#D33C92"/>
<path d="M152.62 195.086C129.623 194.972 110.802 176.043 110.908 153.127C111.023 129.532 129.786 110.791 153.184 110.897C176.451 111.012 195.19 129.875 195.084 153.086C194.986 176.591 176.165 195.201 152.62 195.086ZM153.217 116.774C133.015 116.7 116.858 132.711 116.776 152.89C116.694 172.84 132.655 189.038 152.596 189.243C172.912 189.447 189.257 173.232 189.233 152.898C189.208 132.932 173.166 116.839 153.217 116.774Z" fill="#D33C92"/>
</g>
<defs>
<clipPath id="clip0_77_692">
<rect width="306" height="306" fill="white"/>
</clipPath>
</defs>
</svg>
