<svg width="83" height="82" viewBox="0 0 83 82" fill="none" xmlns="http://www.w3.org/2000/svg">
<g clip-path="url(#clip0_77_728)">
<path d="M50.6048 74.0533C44.9349 74.0533 39.2672 74.0622 33.5972 74.0401C33.0236 74.0379 32.6287 74.2101 32.2338 74.6142C30.5218 76.3673 28.7546 78.0675 27.0603 79.834C26.5859 80.3286 26.2087 80.4036 25.6549 80.0459C25.313 79.8229 24.9136 79.6882 24.543 79.5072C23.9341 79.2069 23.5546 79.4034 23.3494 80.0327C23.2038 80.4765 22.9942 80.9049 22.8906 81.3553C22.767 81.8963 22.4648 82.0023 21.9507 81.9978C19.1444 81.9736 16.3359 81.9691 13.5297 82.0001C12.9847 82.0067 12.742 81.83 12.6163 81.32C12.506 80.8673 12.3074 80.439 12.1552 79.9974C11.9544 79.4211 11.6081 79.2378 11.0146 79.4851C10.3439 79.7655 9.68866 80.4721 9.00915 80.238C8.39803 80.0283 7.96341 79.3018 7.45599 78.7962C5.83884 77.1821 4.23494 75.5526 2.60014 73.9584C2.24274 73.6095 2.16331 73.3247 2.41703 72.8919C2.66633 72.4679 2.85165 72.002 3.06786 71.5582C3.34584 70.9864 3.16272 70.6132 2.58029 70.4078C2.52954 70.3902 2.47659 70.3725 2.42365 70.3526C1.83238 70.134 1.03153 70.0766 0.70281 69.6527C0.316725 69.1537 0.588088 68.3279 0.583676 67.6434C0.570438 65.2742 0.594707 62.9049 0.566026 60.5379C0.559407 60.0389 0.716047 59.796 1.19038 59.6701C1.69339 59.5354 2.18538 59.3522 2.66853 59.1557C3.14949 58.9592 3.33039 58.6081 3.09212 58.1046C3.06786 58.0539 3.048 58.0031 3.02814 57.9523C2.78546 57.3186 2.10816 56.707 2.30451 56.0931C2.49424 55.5058 3.18699 55.0752 3.67015 54.5894C5.28067 52.9687 6.91105 51.3679 8.50393 49.7295C8.90546 49.3166 9.23859 49.1532 9.76588 49.4933C10.1542 49.745 10.6064 49.8996 11.0234 50.1071C11.5617 50.3765 11.9191 50.1977 12.1243 49.6633C12.292 49.2261 12.4552 48.7889 12.5942 48.3429C12.7288 47.9079 12.8457 47.495 13.4524 47.601C13.7812 47.6584 13.7856 47.4133 13.7856 47.1793C13.7856 43.929 13.7812 40.6788 13.7922 37.4286C13.7944 37.0951 13.6311 37.0554 13.362 36.9825C11.8044 36.5586 11.1514 35.6754 11.1448 34.048C11.1425 33.3326 11.1381 32.615 11.1448 31.8996C11.1646 30.2061 12.2501 29.102 13.9312 29.0932C16.3536 29.08 18.7738 29.0755 21.1962 29.0998C21.7058 29.1042 21.9088 28.9828 21.9463 28.4396C22.039 27.0949 22.1802 25.7524 22.3544 24.4144C22.4273 23.8469 22.1934 23.7873 21.7235 23.7917C19.632 23.8116 17.5405 23.8027 15.449 23.7983C12.7729 23.7917 11.1448 22.1577 11.1448 19.4639C11.1403 14.423 11.1425 9.38423 11.1448 4.34327C11.1558 1.60751 12.7751 0.00226638 15.5329 0.00226638C24.0643 5.83414e-05 32.5956 5.83414e-05 41.1248 0.00226638C43.8803 0.00226638 45.4997 1.60972 45.4997 4.34769C45.5041 9.38865 45.5041 14.4274 45.4997 19.4684C45.4975 22.1666 43.8759 23.7939 41.191 23.8005C39.126 23.8049 37.0632 23.8314 35.0004 23.7851C34.3297 23.7696 34.2304 23.9904 34.3076 24.5844C34.4797 25.8937 34.6099 27.2097 34.7114 28.5257C34.7467 28.9983 34.9342 29.0998 35.371 29.0976C41.1777 29.0844 46.9845 29.08 52.7912 29.1042C53.3913 29.1064 53.4398 28.8614 53.4398 28.3778C53.4266 24.3018 53.4354 20.2257 53.431 16.1497C53.4288 13.8401 54.3929 12.0825 56.491 11.0977C58.5957 10.1107 60.5724 10.486 62.2955 12.0361C62.633 12.3408 62.7853 12.2701 63.0897 12.0074C65.3069 10.0908 67.9742 10.0842 70.1848 12.003C70.5422 12.3143 70.7055 12.2812 71.0408 11.9875C72.7264 10.5059 74.6502 10.1328 76.7086 11.0601C78.7912 11.9963 79.8325 13.6987 79.8458 15.9752C79.8723 20.1065 79.8568 24.2377 79.848 28.369C79.8458 28.8216 79.8921 29.0689 80.4503 29.1881C81.7431 29.4664 82.4712 30.4821 82.4932 31.8312C82.5065 32.657 82.5065 33.4828 82.4932 34.3108C82.469 35.6467 81.7277 36.6381 80.426 36.9384C79.9362 37.051 79.8458 37.2387 79.8458 37.6913C79.859 45.3753 79.8568 53.0593 79.848 60.7433C79.848 61.1407 79.9274 61.3924 80.3267 61.5779C81.7233 62.2293 82.5219 63.3245 82.48 64.8944C82.4403 66.4687 81.5291 67.4469 80.1613 68.1203C76.3887 69.9795 72.6315 71.8718 68.8744 73.7663C68.4662 73.9716 68.0647 74.0577 67.6146 74.0577C61.9425 74.0489 56.2726 74.0511 50.6048 74.0533ZM71.9255 57.3539C71.9255 56.9543 71.9255 56.6871 71.9255 56.4199C71.9255 50.2771 71.9101 44.1366 71.9454 37.9938C71.9498 37.2077 71.7755 37.0002 70.968 37.0024C54.8694 37.0289 38.7708 37.0223 22.6699 37.0223C22.5045 37.0223 22.339 37.0377 22.1757 37.0201C21.7985 36.9803 21.7191 37.1724 21.7191 37.508C21.7279 40.7296 21.7235 43.9533 21.7235 47.1748C21.7235 47.4067 21.7257 47.6562 22.0566 47.5966C22.6633 47.4906 22.767 47.9079 22.9148 48.3385C23.6914 50.5686 23.5237 50.6459 25.7476 49.4933C26.2925 49.2107 26.6036 49.3034 27.0095 49.7229C28.6796 51.4408 30.4093 53.099 32.0661 54.8279C32.5912 55.3755 33.1251 55.5566 33.8664 55.5544C45.0673 55.5323 56.2681 55.5411 67.469 55.5301C68.0382 55.5301 68.5412 55.6449 69.042 55.9076C69.9554 56.3912 70.8908 56.8394 71.9255 57.3539ZM28.4127 2.64529C24.0929 2.64529 19.7754 2.64308 15.4557 2.6475C14.2643 2.64971 13.7988 3.10898 13.7966 4.28807C13.7922 9.38202 13.7922 14.4738 13.7966 19.5677C13.7988 20.6563 14.2776 21.1465 15.3454 21.1531C17.5736 21.1641 19.8019 21.1443 22.0301 21.1663C22.5133 21.1707 22.6964 21.0427 22.7273 20.5326C22.8133 19.1879 22.9744 17.8476 23.0847 16.503C23.1222 16.0415 23.2678 15.8494 23.7841 15.8538C26.8088 15.8825 29.8357 15.8803 32.8626 15.8538C33.3722 15.8494 33.5311 16.026 33.5686 16.4963C33.6767 17.841 33.8399 19.1791 33.926 20.526C33.9591 21.0294 34.1245 21.173 34.6165 21.1663C36.7896 21.142 38.9627 21.1597 41.1358 21.1553C42.4176 21.1531 42.8567 20.7093 42.8567 19.4087C42.8589 14.4252 42.8589 9.44164 42.8567 4.45809C42.8567 3.05819 42.4419 2.64529 41.0365 2.64529C36.8293 2.64529 32.6199 2.64529 28.4127 2.64529ZM30.1247 56.7533C30.0806 56.4707 29.8754 56.3559 29.7254 56.2035C28.7965 55.2651 27.8611 54.3311 26.9279 53.3971C25.9197 52.388 25.902 52.3549 24.6401 52.9842C23.7797 53.4126 23.2811 52.6287 22.5949 52.5051C21.6904 52.3417 21.1521 51.8161 21.0153 50.8866C20.9447 50.414 20.6799 50.2241 20.1615 50.2374C18.5664 50.2749 16.9713 50.2727 15.3762 50.2396C14.8732 50.2286 14.6283 50.392 14.496 50.8689C14.3812 51.2862 14.3504 51.9354 13.9996 52.0436C12.7619 52.4322 11.6257 53.7504 10.1564 52.6199C9.76808 52.3218 9.49451 52.4675 9.17903 52.7943C8.11123 53.905 7.0324 55.0068 5.90944 56.0622C5.45717 56.4884 5.30935 56.8372 5.67338 57.3826C5.88297 57.6962 6.19183 58.1334 6.1102 58.4182C5.86752 59.2837 5.49467 60.1228 5.09535 60.9331C4.87253 61.3858 4.29671 61.3549 3.87532 61.5249C3.51351 61.6706 3.1914 61.7457 3.20464 62.2867C3.24656 63.9648 3.2267 65.6451 3.21346 67.3232C3.21126 67.6677 3.27303 67.9128 3.66132 67.9724C4.76884 68.1446 5.21228 68.8865 5.62263 69.8801C6.01092 70.8274 6.18963 71.6024 5.56086 72.4547C5.33142 72.766 5.39319 73.02 5.68661 73.3048C6.8912 74.4728 8.07152 75.6674 9.24963 76.8619C9.48569 77.1004 9.7041 77.2771 10.0196 77.0275C10.9506 76.2923 11.8221 76.5771 12.8193 76.9922C13.7304 77.372 14.3835 77.807 14.5423 78.8161C14.6019 79.1958 14.8115 79.3526 15.224 79.346C16.9007 79.3239 18.5796 79.3327 20.2564 79.3416C20.5873 79.3438 20.8586 79.3129 20.9226 78.9132C21.0991 77.8136 21.8117 77.3411 22.8155 76.9392C23.7532 76.5639 24.5298 76.3409 25.388 76.9812C25.6836 77.202 25.9439 77.1865 26.2418 76.8796C27.4265 75.6519 28.6399 74.453 29.8555 73.2562C30.085 73.0288 30.1887 72.819 29.9769 72.5474C29.2268 71.5847 29.5312 70.6861 29.9592 69.6682C30.3188 68.8114 30.7137 68.1932 31.6668 68.0474C32.1632 67.9724 32.3022 67.6721 32.2912 67.1753C32.2581 65.5789 32.2735 63.9824 32.2846 62.386C32.2868 62.0018 32.2823 61.6574 31.797 61.5911C30.6983 61.441 30.1732 60.7366 29.9283 59.7209C29.8577 59.4317 29.7077 59.1557 29.5533 58.8995C29.3437 58.5529 29.368 58.2504 29.5621 57.9059C29.7893 57.5306 29.9526 57.1221 30.1247 56.7533ZM46.7815 34.3792C57.2653 34.3792 67.7492 34.3792 78.2331 34.3792C79.8524 34.3792 79.8039 34.377 79.8723 32.7475C79.9076 31.9239 79.6958 31.7119 78.8508 31.7141C57.7463 31.7406 36.6418 31.7362 15.5351 31.7362C13.79 31.7362 13.8275 31.7384 13.7745 33.4916C13.7525 34.2092 13.929 34.4013 14.6681 34.3991C25.3747 34.3704 36.077 34.3792 46.7815 34.3792ZM65.746 58.321C65.5584 58.1223 65.3841 58.1819 65.2297 58.1819C54.4745 58.1775 43.7215 58.1775 32.9663 58.1841C32.7434 58.1841 32.3904 58.0494 32.3331 58.374C32.2735 58.7052 32.4412 59.0166 32.8074 59.1446C33.3524 59.3345 33.9017 59.5134 34.44 59.7187C34.6518 59.7982 34.9805 59.8159 34.9254 60.167C34.7996 60.9376 35.3137 60.8316 35.7792 60.8294C39.7128 60.8249 43.6465 60.8272 47.5779 60.8272C52.9699 60.8272 58.3596 60.8294 63.7516 60.8227C64.0582 60.8227 64.4311 60.9663 64.6318 60.5666C65.0069 59.8115 65.3819 59.0541 65.746 58.321ZM65.757 71.2888C65.4658 70.6993 65.1282 70.134 64.8988 69.5268C64.6671 68.9174 64.3097 68.7452 63.6611 68.7474C54.4215 68.7717 45.182 68.7629 35.9424 68.7651C35.4218 68.7651 34.7798 68.5884 34.9165 69.5158C34.9541 69.7763 34.6761 69.7852 34.515 69.847C34.0561 70.0281 33.5928 70.2113 33.1185 70.3416C32.6817 70.4631 32.2713 70.6728 32.3375 71.1409C32.4125 71.6664 32.9266 71.3948 33.2244 71.3948C43.7833 71.4103 54.3443 71.4081 64.9032 71.4037C65.1635 71.4037 65.4415 71.4832 65.757 71.2888ZM50.0158 63.4746C45.5592 63.4746 41.1005 63.4746 36.644 63.4746C34.9298 63.4746 34.9651 63.4746 34.9143 65.1814C34.8923 65.9123 35.0644 66.1397 35.8431 66.1375C45.1158 66.1066 54.3862 66.0889 63.6589 66.153C64.8613 66.1618 65.6732 65.612 66.5512 65.0202C66.6836 64.9297 66.891 64.784 66.666 64.6581C65.896 64.2275 65.3224 63.4569 64.2943 63.4636C59.5355 63.4901 54.7767 63.4746 50.0158 63.4746ZM61.3534 22.1864C61.3534 20.0932 61.3711 18.0022 61.3468 15.909C61.3292 14.3722 60.1577 13.2152 58.6905 13.224C57.2499 13.2351 56.085 14.3722 56.0784 15.867C56.0585 20.0778 56.0784 24.2907 56.0608 28.5037C56.0585 28.9828 56.2108 29.1087 56.6697 29.0998C57.989 29.0733 59.3105 29.0623 60.6298 29.1042C61.199 29.1219 61.3799 28.9718 61.3689 28.38C61.3336 26.3155 61.3556 24.251 61.3534 22.1864ZM63.9987 22.1489C63.9987 24.2134 64.0273 26.2779 63.981 28.3425C63.9678 28.9828 64.1663 29.1263 64.7664 29.1042C66.0306 29.0579 67.2969 29.0601 68.5611 29.1042C69.1369 29.1241 69.2979 28.9607 69.2957 28.3778C69.2693 24.2753 69.2869 20.1749 69.2781 16.0724C69.2737 14.4075 68.1419 13.213 66.613 13.2262C65.0819 13.2395 64.0031 14.4252 63.9987 16.121C63.992 18.1303 63.9987 20.1396 63.9987 22.1489ZM71.9255 22.065C71.9255 24.1582 71.952 26.2492 71.9101 28.3403C71.8969 28.9784 72.0932 29.1241 72.6955 29.102C73.9596 29.0557 75.226 29.0579 76.4902 29.102C77.066 29.1219 77.2292 28.9607 77.2248 28.3756C77.1983 24.273 77.216 20.1727 77.2072 16.0702C77.2028 14.4031 76.0732 13.2108 74.5443 13.224C73.0132 13.2373 71.9344 14.423 71.9277 16.1188C71.9189 18.1016 71.9255 20.0844 71.9255 22.065ZM79.8436 64.8105C79.8303 64.2739 79.431 64.0796 79.0295 63.8787C76.3247 62.5273 73.6221 61.1716 70.9173 59.8247C70.1562 59.4449 69.2737 58.6633 68.6515 58.8311C67.9478 59.021 67.833 60.2707 67.3565 60.995C66.9814 61.5624 67.191 61.8384 67.694 62.1542C68.881 62.9005 70.026 63.7109 71.2019 64.4748C71.5593 64.7067 71.6078 64.8502 71.2195 65.0953C70.5687 65.506 69.9245 65.9299 69.3024 66.3804C68.5765 66.9081 67.33 67.2172 67.2307 67.9702C67.127 68.7452 67.9125 69.6395 68.3096 70.4807C68.3206 70.505 68.336 70.5293 68.3449 70.5558C68.4706 70.898 68.6648 70.9091 68.9781 70.7523C72.3888 69.0322 75.8062 67.3276 79.2214 65.6186C79.559 65.4486 79.8171 65.2234 79.8436 64.8105ZM28.309 29.0888C29.4099 29.0888 30.5108 29.0755 31.6095 29.0954C32.0176 29.102 32.1169 28.9695 32.075 28.5655C31.7506 25.3903 31.4374 22.2129 31.1484 19.0356C31.1064 18.5829 30.9233 18.5012 30.5306 18.5056C29.0723 18.5211 27.614 18.5255 26.1579 18.5034C25.7233 18.4968 25.5424 18.5962 25.4983 19.0797C25.2181 22.2306 24.907 25.3815 24.5805 28.5279C24.5342 28.974 24.6489 29.1042 25.0879 29.0954C26.1623 29.0733 27.2346 29.0888 28.309 29.0888ZM77.2094 60.0013C77.2094 59.5531 77.2094 59.2528 77.2094 58.9503C77.2094 52.2909 77.2094 45.6314 77.2094 38.972C77.2094 36.956 77.2094 36.9693 75.1664 37.0112C74.7098 37.0201 74.5575 37.1305 74.5575 37.6096C74.573 44.4612 74.5686 51.3127 74.5664 58.1665C74.5664 58.4447 74.5509 58.7008 74.8774 58.8532C75.6187 59.1954 76.3446 59.573 77.2094 60.0013ZM19.0782 42.3966C19.0782 41.2418 19.0782 40.0848 19.0782 38.93C19.0782 37.0002 19.0782 37.0245 17.1588 37.009C16.5919 37.0046 16.4132 37.1437 16.422 37.7333C16.4551 40.3741 16.4352 43.0171 16.4352 45.6579C16.4352 47.6429 16.4352 47.6231 18.3965 47.6209C18.926 47.6209 19.1047 47.4884 19.0915 46.9386C19.054 45.4239 19.0782 43.9114 19.0782 42.3966Z" fill="url(#paint0_linear_77_728)"/>
<path d="M17.7263 75.3693C11.9262 75.3604 7.18725 70.5999 7.18945 64.7839C7.19387 58.979 11.9482 54.2207 17.7483 54.2184C23.5925 54.2162 28.3447 58.9944 28.3248 64.848C28.3072 70.6529 23.5462 75.3781 17.7263 75.3693ZM17.788 72.724C22.1453 72.713 25.695 69.136 25.6818 64.7663C25.6686 60.4076 22.0879 56.8504 17.7285 56.8637C13.3734 56.8769 9.82145 60.4606 9.83248 64.8259C9.84572 69.1868 13.4198 72.7351 17.788 72.724Z" fill="url(#paint1_linear_77_728)"/>
<path d="M17.735 70.0854C14.814 70.0788 12.4578 67.6919 12.4732 64.7552C12.4887 61.8715 14.8537 59.5133 17.7372 59.5045C20.6604 59.4956 23.0409 61.8737 23.0409 64.7994C23.0409 67.7294 20.6692 70.092 17.735 70.0854ZM17.7902 67.4402C19.2308 67.4247 20.3957 66.25 20.4001 64.806C20.4045 63.3354 19.1933 62.132 17.7262 62.1475C16.2944 62.1652 15.1207 63.3509 15.1185 64.7883C15.1118 66.2677 16.3098 67.4556 17.7902 67.4402Z" fill="url(#paint2_linear_77_728)"/>
</g>
<defs>
<linearGradient id="paint0_linear_77_728" x1="41.4991" y1="0.000610352" x2="41.4991" y2="82.0002" gradientUnits="userSpaceOnUse">
<stop stop-color="#29428D"/>
<stop offset="1" stop-color="#D33C92"/>
</linearGradient>
<linearGradient id="paint1_linear_77_728" x1="17.7572" y1="54.2184" x2="17.7572" y2="75.3693" gradientUnits="userSpaceOnUse">
<stop stop-color="#29428D"/>
<stop offset="1" stop-color="#D33C92"/>
</linearGradient>
<linearGradient id="paint2_linear_77_728" x1="17.757" y1="59.5045" x2="17.757" y2="70.0854" gradientUnits="userSpaceOnUse">
<stop stop-color="#29428D"/>
<stop offset="1" stop-color="#D33C92"/>
</linearGradient>
<clipPath id="clip0_77_728">
<rect width="82" height="82" fill="white" transform="translate(0.5)"/>
</clipPath>
</defs>
</svg>
