<svg width="73" height="73" viewBox="0 0 73 73" fill="none" xmlns="http://www.w3.org/2000/svg">
<g clip-path="url(#clip0_77_714)">
<path d="M55.1665 72.9867C36.9846 72.9867 18.8007 72.9848 0.618806 73C0.100954 73 0.00195312 72.8896 0.00195312 72.3794C0.0171841 52.6332 0.0152802 32.885 0.0152802 13.1388C0.201859 12.7485 0.483632 12.4344 0.786347 12.1299C4.34848 8.5739 7.94489 5.0503 11.4442 1.43152C12.4552 0.384532 13.487 -0.00571021 14.9321 6.43486e-07C28.0402 0.0513984 41.1483 0.0304586 54.2565 0.0304586C55.5625 0.0304586 55.9471 0.416893 55.9566 1.73229C55.9623 2.37381 55.9795 3.01533 55.9509 3.65495C55.9224 4.32883 55.8748 4.97035 56.7277 5.21211C56.9105 5.26351 57.0456 5.48814 57.1979 5.63852C62.2184 10.6584 67.2409 15.6763 72.2594 20.6981C73.2209 21.6594 73.219 22.181 72.2499 23.1499C68.4555 26.9457 64.6611 30.7396 60.8667 34.5336C59.8443 35.5558 59.3493 35.5558 58.3136 34.5031C57.5882 33.7664 56.8857 33.0069 56.1394 32.2207C55.8786 32.6261 55.9623 32.9155 55.9623 33.1877C55.9566 45.843 55.9547 58.4982 55.9661 71.1535C55.9661 71.9016 55.8386 72.5507 55.1665 72.9867ZM2.44081 42.5402C2.44081 51.6338 2.44652 60.7274 2.42748 69.821C2.42558 70.3997 2.55694 70.5729 3.16047 70.5729C18.0735 70.5557 32.9846 70.5538 47.8976 70.5767C48.5639 70.5786 48.6591 70.3616 48.6591 69.7734C48.6439 55.0298 48.6439 40.2844 48.6591 25.5409C48.6591 25.0174 48.4973 24.6614 48.1317 24.3035C46.4849 22.693 44.8704 21.0502 43.2331 19.4321C42.8237 19.0286 42.5801 18.5946 42.582 17.9968C42.5953 14.1268 42.5839 10.2567 42.5915 6.38664C42.5934 5.32062 43.0408 4.89611 44.126 4.88659C45.0513 4.87707 45.9785 4.88469 46.9037 4.88469C48.6743 4.88469 48.6477 4.88469 48.661 3.09909C48.6648 2.53753 48.4687 2.44615 47.9661 2.44806C37.0665 2.46138 26.1668 2.46138 15.2691 2.44615C14.7398 2.44615 14.5837 2.5775 14.5875 3.11623C14.6122 6.36951 14.6008 9.62089 14.5989 12.8742C14.597 14.2581 14.2486 14.6122 12.8816 14.6141C9.7231 14.6179 6.56459 14.6122 3.40797 14.616C2.28659 14.6179 2.44462 14.5227 2.44462 15.5469C2.4389 24.5434 2.44081 33.5418 2.44081 42.5402ZM45.0208 12.6419C45.0208 14.1858 45.0265 15.7296 45.0151 17.2715C45.0132 17.5971 45.0855 17.8502 45.3292 18.092C49.9709 22.7197 54.6049 27.3512 59.2313 31.9922C59.5111 32.2721 59.6768 32.2949 59.9681 32.0017C63.1989 28.7523 66.4393 25.5123 69.6911 22.2819C69.9729 22.002 69.9862 21.8459 69.6949 21.5566C65.0514 16.9327 60.4174 12.2974 55.7891 7.65826C55.5568 7.42602 55.3245 7.30419 54.9837 7.30609C51.85 7.31751 48.7143 7.32132 45.5805 7.30419C45.1446 7.30228 45.0075 7.43173 45.0132 7.86766C45.0322 9.45909 45.0208 11.0505 45.0208 12.6419ZM51.216 27.3779C51.0085 27.7548 51.0846 28.0422 51.0846 28.3163C51.0808 41.8016 51.0808 55.2868 51.0808 68.7721C51.0808 70.5938 51.0808 70.5729 52.9009 70.5729C53.4188 70.5729 53.5254 70.3939 53.5254 69.918C53.514 56.6936 53.5178 43.4711 53.5159 30.2466C53.5159 30.0144 53.5616 29.765 53.3712 29.5708C52.6648 28.8513 51.9585 28.1317 51.216 27.3779ZM12.1639 4.39546C9.54414 7.01293 6.98344 9.5714 4.43035 12.1242C4.40941 12.1089 4.44368 12.1584 4.47795 12.1584C6.89776 12.166 9.31758 12.1641 11.7374 12.1832C12.1734 12.187 12.1658 11.9376 12.1658 11.633C12.162 10.3995 12.1639 9.16593 12.1639 7.93238C12.1639 6.75595 12.1639 5.57761 12.1639 4.39546ZM52.2517 4.88469C53.5178 4.88469 53.5178 4.88469 53.5178 3.61307C53.5178 2.45757 53.5178 2.45757 52.3488 2.45757C51.0827 2.45757 51.0827 2.45757 51.0827 3.72919C51.0827 4.88469 51.0827 4.88469 52.2517 4.88469Z" fill="url(#paint0_linear_77_714)"/>
<path d="M62.7192 72.9867C61.3103 72.4556 60.8039 71.4352 60.8096 69.9447C60.8477 61.0434 60.8344 52.1421 60.8172 43.2407C60.8153 42.4831 61.019 41.8777 61.5007 41.2933C62.9039 39.5896 64.2651 37.8516 65.6435 36.1288C66.5041 35.0533 67.2828 35.0457 68.1319 36.1041C69.5579 37.8821 70.9706 39.6676 72.408 41.4361C72.8192 41.9425 72.9906 42.4793 72.9887 43.1341C72.9753 52.0355 72.9582 60.9368 73.0001 69.8381C73.0077 71.3401 72.5451 72.408 71.1267 72.9867C68.3242 72.9867 65.5217 72.9867 62.7192 72.9867ZM63.2618 57.1695C63.2618 61.4203 63.2694 65.6711 63.2523 69.92C63.2504 70.394 63.3494 70.5786 63.871 70.571C65.9139 70.5405 67.9548 70.5482 69.9977 70.5672C70.4299 70.571 70.5631 70.4568 70.5612 70.0113C70.5479 61.4622 70.5479 52.9149 70.5631 44.3658C70.5631 43.8784 70.3937 43.7776 69.9482 43.7814C67.9529 43.8004 65.9577 43.8099 63.9643 43.7776C63.4046 43.768 63.2466 43.9222 63.2485 44.4876C63.2713 48.7155 63.2618 52.9416 63.2618 57.1695ZM64.6059 41.3257C66.1747 41.3257 67.6178 41.3257 69.1923 41.3257C68.3984 40.3301 67.6731 39.4202 66.9058 38.4569C66.1328 39.4183 65.4017 40.3301 64.6059 41.3257Z" fill="url(#paint1_linear_77_714)"/>
<path d="M18.2542 55.4962C18.2542 54.1199 18.2332 52.7417 18.2656 51.3653C18.277 50.9123 18.1076 50.7067 17.7211 50.5125C11.9314 47.6266 8.36929 42.9837 7.53159 36.5894C6.55491 29.1311 9.28886 23.0433 15.5564 18.8763C21.3194 15.0462 27.5508 14.7321 33.7517 17.8331C39.4023 20.6581 42.7075 25.3619 43.5889 31.6153C44.7027 39.5134 40.6227 46.9946 33.4527 50.4744C32.9749 50.7067 32.8188 50.9751 32.8245 51.5005C32.853 54.0875 32.8473 56.6764 32.834 59.2635C32.8226 61.5021 31.8154 62.7376 29.6298 63.202C29.3137 63.2687 29.1862 63.3848 29.2033 63.7122C29.2319 64.211 29.2052 64.7078 29.1062 65.2008C28.7559 66.9389 27.1376 68.2162 25.4051 68.121C23.5431 68.0163 22.001 66.6152 21.9705 64.7801C21.9515 63.7198 21.7421 63.2097 20.5845 62.9527C19.1509 62.6329 18.2999 61.1595 18.2523 59.5585C18.2504 59.5109 18.2504 59.4633 18.2504 59.4157C18.2561 58.108 18.2561 56.8021 18.2542 55.4962ZM21.2185 49.2371C21.2185 49.0353 21.2356 48.8944 21.2166 48.7593C20.7216 45.308 20.2285 41.8549 19.7202 38.4055C19.4726 36.7246 19.4574 36.7265 21.1138 36.4505C21.2299 36.4314 21.348 36.4105 21.4641 36.3858C21.7973 36.3153 21.921 36.4505 21.9648 36.7855C22.1362 38.1028 22.338 39.4163 22.5245 40.7317C22.9206 43.5262 23.3223 46.3207 23.7049 49.1191C23.7678 49.574 23.8953 49.8082 24.4322 49.831C25.2414 49.8653 26.0429 49.8691 26.8501 49.8063C27.21 49.7777 27.328 49.633 27.3756 49.2923C27.8935 45.5555 28.438 41.8244 28.952 38.0876C29.2014 36.2753 29.1786 36.2963 31.0177 36.5875C31.5146 36.6656 31.6098 36.8141 31.5375 37.2995C30.9872 41.0306 30.4637 44.7674 29.9401 48.5023C29.8316 49.2714 29.8487 49.2733 30.5665 49.0429C39.0235 46.3246 43.4538 36.9549 40.3143 28.4286C37.0415 19.5425 26.1286 15.5525 17.902 20.2374C8.15606 25.7864 6.90903 38.9366 15.4479 46.197C17.1252 47.6247 19.0367 48.6413 21.2185 49.2371ZM20.6816 51.6966C20.6816 52.0506 20.7159 52.3838 20.674 52.7074C20.5921 53.3413 20.8015 53.5545 21.4736 53.5431C24.0096 53.5031 26.5474 53.5259 29.0834 53.5259C30.4675 53.5259 30.4446 53.5259 30.4161 52.163C30.4066 51.6947 30.2276 51.668 29.864 51.7632C27.7526 52.3095 25.6126 52.4656 23.4498 52.1744C22.5417 52.0544 21.6412 51.8641 20.6816 51.6966ZM25.5955 59.6023C24.2209 59.6023 22.8444 59.5909 21.4698 59.6137C21.228 59.6175 20.8263 59.4138 20.754 59.7889C20.6911 60.1125 20.9348 60.4189 21.2413 60.5979C21.3803 60.6797 21.5441 60.7654 21.6983 60.7711C24.278 60.8739 26.8597 60.891 29.4394 60.7654C29.7688 60.7502 30.0029 60.5389 30.1876 60.2781C30.298 60.1201 30.4085 59.945 30.3494 59.7527C30.2695 59.4957 30.0296 59.6118 29.864 59.6099C28.4418 59.5985 27.0177 59.6023 25.5955 59.6023ZM25.5193 57.1733C26.9663 57.1733 28.4132 57.1562 29.8582 57.1828C30.3018 57.1904 30.4332 57.0457 30.4161 56.6174C30.3989 56.2291 30.4104 55.9531 29.8678 55.9569C26.9986 55.9816 24.1295 55.9778 21.2604 55.9588C20.7787 55.955 20.6702 56.1282 20.6683 56.5755C20.6683 57.0191 20.7616 57.198 21.2509 57.1866C22.673 57.1542 24.0952 57.1733 25.5193 57.1733ZM25.6659 63.2687C24.1866 63.282 24.3656 63.1449 24.3504 63.9635C24.3294 65.0942 24.773 65.7015 25.5726 65.6844C26.3494 65.6691 26.7207 65.0657 26.7949 63.9958C26.8711 62.886 26.0772 63.3886 25.6659 63.2687Z" fill="url(#paint2_linear_77_714)"/>
<path d="M35.2139 14.6141C33.8145 14.6141 32.4152 14.6007 31.0158 14.6217C30.5665 14.6293 30.4009 14.5056 30.3952 14.0258C30.3685 12.1793 30.3514 12.1793 32.1791 12.1793C34.6218 12.1793 37.0663 12.1908 39.509 12.1698C39.9926 12.166 40.1639 12.2955 40.1677 12.8037C40.1811 14.6122 40.2001 14.6122 38.4181 14.6122C37.3481 14.6141 36.28 14.6141 35.2139 14.6141Z" fill="url(#paint3_linear_77_714)"/>
<path d="M29.3006 7.31369C30.7019 7.31369 32.1031 7.32702 33.5025 7.30608C33.9213 7.30037 34.0736 7.39935 34.0812 7.85622C34.1136 9.75032 34.1307 9.75032 32.2212 9.75032C29.7994 9.75032 27.3777 9.7408 24.956 9.75794C24.5162 9.76174 24.3392 9.66656 24.3334 9.17733C24.3106 7.31559 24.2935 7.31559 26.1669 7.31559C27.2102 7.31369 28.2554 7.31369 29.3006 7.31369Z" fill="url(#paint4_linear_77_714)"/>
<path d="M41.2758 54.7481C39.8536 54.7481 38.4314 54.7347 37.0111 54.7557C36.6113 54.7614 36.4952 54.6472 36.4856 54.2398C36.4399 52.3191 36.4266 52.3191 38.3705 52.3191C40.7884 52.3191 43.2044 52.3305 45.6223 52.3095C46.0773 52.3057 46.2239 52.4257 46.2258 52.8978C46.2392 54.7462 46.2563 54.7462 44.4019 54.7462C43.3605 54.7481 42.3191 54.7481 41.2758 54.7481Z" fill="url(#paint5_linear_77_714)"/>
<path d="M41.348 59.6023C39.903 59.6023 38.458 59.589 37.0129 59.6099C36.6169 59.6156 36.4951 59.5033 36.4856 59.0959C36.438 57.1752 36.4246 57.1752 38.2999 57.1752C40.7407 57.1752 43.1795 57.1866 45.6203 57.1657C46.0753 57.1619 46.2238 57.2799 46.2276 57.7539C46.2448 59.6023 46.2619 59.6023 44.4037 59.6023C43.3852 59.6023 42.3666 59.6023 41.348 59.6023Z" fill="url(#paint6_linear_77_714)"/>
<path d="M41.3423 64.4642C39.9658 64.4642 38.5874 64.4432 37.2109 64.4756C36.6873 64.487 36.4703 64.3899 36.4798 63.7922C36.5122 62.0313 36.4817 62.0313 38.2618 62.0313C40.6607 62.0313 43.0596 62.0485 45.4565 62.018C46.0182 62.0104 46.2428 62.117 46.2314 62.7433C46.199 64.4642 46.2295 64.4642 44.4779 64.4642C43.4327 64.4642 42.3875 64.4642 41.3423 64.4642Z" fill="url(#paint7_linear_77_714)"/>
<path d="M38.3592 7.31372C40.1927 7.31372 40.1736 7.31372 40.166 9.12406C40.1641 9.62662 40.0042 9.777 39.5168 9.75606C38.7134 9.7218 37.9061 9.72751 37.1027 9.75416C36.6667 9.76939 36.4877 9.67611 36.4839 9.18117C36.4744 7.31372 36.4535 7.31372 38.3592 7.31372Z" fill="url(#paint8_linear_77_714)"/>
<path d="M51.0883 17.0355C49.0778 17.0336 47.4652 15.4269 47.4595 13.4224C47.4538 11.3932 49.1235 9.72559 51.1263 9.75986C53.1197 9.79412 54.7418 11.4427 54.7323 13.4262C54.7227 15.4174 53.0892 17.0374 51.0883 17.0355ZM52.2972 13.3958C52.2915 12.7733 51.7413 12.2193 51.1168 12.206C50.4524 12.1908 49.8888 12.7485 49.8926 13.4148C49.8983 14.0887 50.4524 14.6141 51.1339 14.5912C51.7775 14.5703 52.3029 14.0297 52.2972 13.3958Z" fill="url(#paint9_linear_77_714)"/>
<path d="M65.2836 21.5775C65.1618 21.7089 65.0704 21.8155 64.9695 21.9145C63.1742 23.7115 61.3731 25.5028 59.5873 27.3074C59.3322 27.5644 59.1665 27.6158 58.9095 27.3207C58.4906 26.841 57.7538 26.4222 57.6891 25.9121C57.6301 25.44 58.4335 25.0212 58.8638 24.5871C60.2993 23.1347 61.7558 21.7051 63.1837 20.2469C63.4959 19.929 63.7015 19.8528 64.0138 20.2336C64.3146 20.5991 64.6801 20.9093 65.0114 21.2482C65.1104 21.3491 65.1904 21.4614 65.2836 21.5775Z" fill="url(#paint10_linear_77_714)"/>
<path d="M25.6582 35.2626C25.2146 35.2531 24.9329 35.137 24.6549 34.9961C23.5335 34.4289 22.4007 33.8863 21.2927 33.2962C20.8738 33.0735 20.533 33.0487 20.1046 33.281C19.0404 33.854 17.9438 34.3641 16.8719 34.9257C16.5025 35.1199 16.2874 35.1161 16.1179 34.6877C15.8914 34.1205 15.3336 33.517 15.4326 33.0335C15.5239 32.5804 16.3864 32.4491 16.91 32.1788C17.8371 31.6991 18.7872 31.2669 19.7029 30.7701C20.3693 30.4084 20.9785 30.4008 21.6506 30.7606C22.7377 31.3412 23.8629 31.8495 24.95 32.4282C25.3688 32.6509 25.702 32.6737 26.1323 32.4434C27.2384 31.8495 28.3846 31.3298 29.4964 30.7473C30.1171 30.4217 30.6902 30.4103 31.3165 30.7377C32.6416 31.4268 33.9781 32.0912 35.3223 32.7403C35.6802 32.9136 35.8116 33.043 35.604 33.4675C34.7606 35.1903 34.7816 35.1884 33.0452 34.3356C32.1561 33.8996 31.2994 33.0792 30.3665 33.1458C29.4698 33.2086 28.6245 33.9377 27.743 34.3432C27.0176 34.6744 26.3627 35.1846 25.6582 35.2626Z" fill="url(#paint11_linear_77_714)"/>
</g>
<defs>
<linearGradient id="paint0_linear_77_714" x1="36.4903" y1="-6.10352e-05" x2="36.4903" y2="73" gradientUnits="userSpaceOnUse">
<stop offset="0.0139996" stop-color="#29428D"/>
<stop offset="0.769" stop-color="#D43D93"/>
</linearGradient>
<linearGradient id="paint1_linear_77_714" x1="66.9049" y1="35.3162" x2="66.9049" y2="72.9867" gradientUnits="userSpaceOnUse">
<stop offset="0.0139996" stop-color="#29428D"/>
<stop offset="0.769" stop-color="#D43D93"/>
</linearGradient>
<linearGradient id="paint2_linear_77_714" x1="25.5546" y1="15.7306" x2="25.5546" y2="68.126" gradientUnits="userSpaceOnUse">
<stop offset="0.0139996" stop-color="#29428D"/>
<stop offset="0.769" stop-color="#D43D93"/>
</linearGradient>
<linearGradient id="paint3_linear_77_714" x1="35.2797" y1="12.1697" x2="35.2797" y2="14.622" gradientUnits="userSpaceOnUse">
<stop offset="0.0139996" stop-color="#29428D"/>
<stop offset="0.769" stop-color="#D43D93"/>
</linearGradient>
<linearGradient id="paint4_linear_77_714" x1="29.2088" y1="7.30585" x2="29.2088" y2="9.75805" gradientUnits="userSpaceOnUse">
<stop offset="0.0139996" stop-color="#29428D"/>
<stop offset="0.769" stop-color="#D43D93"/>
</linearGradient>
<linearGradient id="paint5_linear_77_714" x1="41.3509" y1="52.3094" x2="41.3509" y2="54.7559" gradientUnits="userSpaceOnUse">
<stop offset="0.0139996" stop-color="#29428D"/>
<stop offset="0.769" stop-color="#D43D93"/>
</linearGradient>
<linearGradient id="paint6_linear_77_714" x1="41.3518" y1="57.1656" x2="41.3518" y2="59.6101" gradientUnits="userSpaceOnUse">
<stop offset="0.0139996" stop-color="#29428D"/>
<stop offset="0.769" stop-color="#D43D93"/>
</linearGradient>
<linearGradient id="paint7_linear_77_714" x1="41.3557" y1="62.0176" x2="41.3557" y2="64.4764" gradientUnits="userSpaceOnUse">
<stop offset="0.0139996" stop-color="#29428D"/>
<stop offset="0.769" stop-color="#D43D93"/>
</linearGradient>
<linearGradient id="paint8_linear_77_714" x1="38.3248" y1="7.31372" x2="38.3248" y2="9.75794" gradientUnits="userSpaceOnUse">
<stop offset="0.0139996" stop-color="#29428D"/>
<stop offset="0.769" stop-color="#D43D93"/>
</linearGradient>
<linearGradient id="paint9_linear_77_714" x1="51.0959" y1="9.75934" x2="51.0959" y2="17.0355" gradientUnits="userSpaceOnUse">
<stop offset="0.0139996" stop-color="#29428D"/>
<stop offset="0.769" stop-color="#D43D93"/>
</linearGradient>
<linearGradient id="paint10_linear_77_714" x1="61.4848" y1="19.9772" x2="61.4848" y2="27.5218" gradientUnits="userSpaceOnUse">
<stop offset="0.0139996" stop-color="#29428D"/>
<stop offset="0.769" stop-color="#D43D93"/>
</linearGradient>
<linearGradient id="paint11_linear_77_714" x1="25.5619" y1="30.4948" x2="25.5619" y2="35.2626" gradientUnits="userSpaceOnUse">
<stop offset="0.0139996" stop-color="#29428D"/>
<stop offset="0.769" stop-color="#D43D93"/>
</linearGradient>
<clipPath id="clip0_77_714">
<rect width="73" height="73" fill="white"/>
</clipPath>
</defs>
</svg>
