<svg width="194" height="272" viewBox="0 0 194 272" fill="none" xmlns="http://www.w3.org/2000/svg">
<path d="M96.9491 270.319L23.2471 174.469L23.2453 174.467C23.0396 174.203 22.2832 173.123 21.5662 172.091C21.2105 171.579 20.8681 171.084 20.6146 170.717L20.3106 170.277L20.2264 170.155L20.2043 170.123L20.1987 170.115L20.1972 170.113L20.1969 170.112C7.60513 151.809 0.797053 129.454 0.820504 106.47C0.850597 78.3423 10.9973 51.3833 29.0237 31.5053C47.0487 11.6288 71.4777 0.456648 96.9491 0.423349C122.42 0.456647 146.849 11.6288 164.874 31.5053C182.901 51.3833 193.048 78.3423 193.078 106.47C193.098 129.443 186.293 151.786 173.71 170.083L173.672 170.138L173.664 170.166L173.588 170.276L173.283 170.715C173.03 171.08 172.688 171.573 172.333 172.081C171.622 173.102 170.873 174.172 170.685 174.423C170.684 174.423 170.684 174.424 170.684 174.424L96.9491 270.319ZM132.49 106.47V106.47C132.49 98.7361 130.41 91.1731 126.51 84.7369C122.61 78.3004 117.063 73.2771 110.564 70.3088C104.065 67.3401 96.9101 66.5625 90.0072 68.0767C83.1048 69.5907 76.7709 73.3264 71.8036 78.8038C66.8368 84.2809 63.4583 91.2542 62.0899 98.8402C60.7215 106.426 61.4236 114.29 64.1086 121.438C66.7936 128.586 71.3431 134.702 77.1877 139.008C83.0329 143.315 89.9099 145.617 96.9491 145.617H96.9497C106.386 145.604 115.423 141.464 122.082 134.122C128.739 126.781 132.478 116.836 132.49 106.47Z" stroke="#DDDDDD" stroke-width="0.857684"/>
</svg>
