<svg width="31" height="31" viewBox="0 0 31 31" fill="none" xmlns="http://www.w3.org/2000/svg">
<g clip-path="url(#clip0_391_368)">
<path d="M15.6972 12.2257C13.9315 12.2257 12.4977 13.6573 12.4977 15.4253C12.4977 17.191 13.9315 18.6225 15.6972 18.6225C17.4629 18.6225 18.8967 17.191 18.8967 15.4253C18.8967 13.6573 17.4629 12.2257 15.6972 12.2257ZM15.6972 12.2257C13.9315 12.2257 12.4977 13.6573 12.4977 15.4253C12.4977 17.191 13.9315 18.6225 15.6972 18.6225C17.4629 18.6225 18.8967 17.191 18.8967 15.4253C18.8967 13.6573 17.4629 12.2257 15.6972 12.2257ZM15.6972 0.184082C7.27958 0.184082 0.456055 7.00761 0.456055 15.4253C0.456055 23.8429 7.27958 30.6664 15.6972 30.6664C24.1149 30.6664 30.9384 23.8429 30.9384 15.4253C30.9384 7.00761 24.1149 0.184082 15.6972 0.184082ZM25.2348 19.3812C25.1896 20.4018 25.0271 21.0995 24.79 21.7114C24.5439 22.3414 24.2165 22.8765 23.6836 23.4094C23.1485 23.9445 22.6133 24.2719 21.9834 24.5158C21.3737 24.7551 20.676 24.9154 19.6532 24.9628C18.6303 25.0103 18.3029 25.0215 15.6972 25.0215C13.0915 25.0215 12.7641 25.0103 11.7413 24.9628C10.7184 24.9154 10.0207 24.7551 9.41109 24.5158C8.78112 24.2719 8.24599 23.9445 7.71085 23.4094C7.17797 22.8765 6.85057 22.3414 6.60445 21.7114C6.36737 21.0995 6.2048 20.4018 6.15964 19.3812C6.11222 18.3583 6.10093 18.0309 6.10093 15.4253C6.10093 12.8173 6.11222 12.4922 6.15964 11.4671C6.2048 10.4465 6.36737 9.74876 6.60445 9.13911C6.85057 8.50689 7.17797 7.97175 7.71085 7.43888C8.24599 6.906 8.78112 6.57634 9.41109 6.33248C10.0207 6.0954 10.7184 5.93282 11.7413 5.88541C12.7641 5.83799 13.0915 5.82896 15.6972 5.82896C18.3029 5.82896 18.6303 5.83799 19.6532 5.88541C20.676 5.93282 21.3737 6.0954 21.9834 6.33248C22.6133 6.57634 23.1485 6.906 23.6836 7.43888C24.2165 7.97175 24.5439 8.50689 24.79 9.13911C25.0271 9.74876 25.1896 10.4465 25.2348 11.4671C25.2822 12.4922 25.2935 12.8173 25.2935 15.4253C25.2935 18.0309 25.2822 18.3583 25.2348 19.3812ZM23.1778 9.76457C23.004 9.31749 22.7962 8.99686 22.4598 8.66043C22.1234 8.32625 21.805 8.11852 21.3579 7.9424C21.0192 7.81144 20.5112 7.65564 19.5741 7.61274C18.5626 7.56758 18.26 7.55629 15.6972 7.55629C13.1344 7.55629 12.8319 7.56758 11.8203 7.61274C10.8833 7.65564 10.3752 7.81144 10.0365 7.9424C9.58947 8.11852 9.27109 8.32625 8.93466 8.66043C8.59822 8.99686 8.39049 9.31749 8.21663 9.76457C8.08567 10.1033 7.92761 10.6113 7.88697 11.5461C7.83955 12.5577 7.83052 12.8625 7.83052 15.4253C7.83052 17.9858 7.83955 18.2906 7.88697 19.3022C7.92761 20.2369 8.08567 20.745 8.21663 21.0837C8.39049 21.5307 8.59822 21.8514 8.93466 22.1878C9.27109 22.5242 9.58947 22.732 10.0365 22.9058C10.3752 23.0368 10.8833 23.1926 11.8203 23.2355C12.8319 23.2807 13.1344 23.2919 15.6972 23.2919C18.26 23.2919 18.5626 23.2807 19.5741 23.2355C20.5112 23.1926 21.0192 23.0368 21.3579 22.9058C21.805 22.732 22.1234 22.5242 22.4598 22.1878C22.7962 21.8514 23.004 21.5307 23.1778 21.0837C23.3088 20.745 23.4668 20.2369 23.5075 19.3022C23.5549 18.2906 23.5639 17.9858 23.5639 15.4253C23.5639 12.8625 23.5549 12.5577 23.5075 11.5461C23.4668 10.6113 23.3088 10.1033 23.1778 9.76457ZM15.6972 20.3521C12.9764 20.3521 10.7704 18.1461 10.7704 15.4253C10.7704 12.7022 12.9764 10.4961 15.6972 10.4961C18.4181 10.4961 20.6241 12.7022 20.6241 15.4253C20.6241 18.1461 18.4181 20.3521 15.6972 20.3521ZM20.8205 11.4535C20.1838 11.4535 19.669 10.9387 19.669 10.302C19.669 9.66522 20.1838 9.1504 20.8205 9.1504C21.455 9.1504 21.9721 9.66522 21.9721 10.302C21.9721 10.9387 21.455 11.4535 20.8205 11.4535ZM15.6972 12.2257C13.9315 12.2257 12.4977 13.6573 12.4977 15.4253C12.4977 17.191 13.9315 18.6225 15.6972 18.6225C17.4629 18.6225 18.8967 17.191 18.8967 15.4253C18.8967 13.6573 17.4629 12.2257 15.6972 12.2257Z" fill="white"/>
</g>
<defs>
<clipPath id="clip0_391_368">
<rect width="30.4823" height="30.4823" fill="white" transform="translate(0.456055 0.184082)"/>
</clipPath>
</defs>
</svg>
