<svg width="32" height="31" viewBox="0 0 32 31" fill="none" xmlns="http://www.w3.org/2000/svg">
<g clip-path="url(#clip0_391_375)">
<path d="M16.0654 0.184082C7.64775 0.184082 0.824219 7.00761 0.824219 15.4253C0.824219 23.8429 7.64775 30.6664 16.0654 30.6664C24.483 30.6664 31.3066 23.8429 31.3066 15.4253C31.3066 7.00761 24.483 0.184082 16.0654 0.184082ZM11.3011 17.7532C11.3011 19.6612 11.2989 21.5714 11.3056 23.4794C11.3079 23.6916 11.2537 23.7548 11.0347 23.7526C9.95086 23.7413 8.86704 23.7435 7.78322 23.7503C7.60936 23.7526 7.55517 23.7097 7.55743 23.529C7.56194 19.6657 7.56194 15.8023 7.55743 11.939C7.55743 11.7787 7.59581 11.72 7.76516 11.7222C8.86478 11.729 9.96666 11.7312 11.0663 11.72C11.2763 11.7177 11.3056 11.8012 11.3056 11.9819C11.2989 13.9056 11.3011 15.8294 11.3011 17.7532ZM9.43379 10.0671C8.25514 10.0671 7.27293 9.0917 7.26841 7.91079C7.26615 6.71859 8.2461 5.73638 9.4383 5.73864C10.6237 5.73864 11.5992 6.71182 11.6014 7.89273C11.6014 9.0917 10.6305 10.0671 9.43379 10.0671ZM25.3298 23.5042C25.332 23.7006 25.2756 23.7526 25.0814 23.7526C23.9976 23.7435 22.9115 23.7413 21.8277 23.7526C21.638 23.7526 21.5951 23.6939 21.5974 23.5132C21.6019 21.5104 21.6041 19.5076 21.5974 17.5048C21.5951 17.0013 21.5635 16.5 21.4235 16.0123C21.1638 15.1137 20.5203 14.6553 19.5788 14.705C18.2917 14.7727 17.6234 15.4094 17.4585 16.7168C17.4202 17.0307 17.4021 17.3422 17.4021 17.6561C17.4021 19.6047 17.3998 21.5533 17.4066 23.5019C17.4066 23.6961 17.3592 23.7526 17.1605 23.7526C16.0676 23.7413 14.9748 23.7435 13.8819 23.7503C13.7081 23.7526 13.6562 23.7052 13.6562 23.529C13.6629 19.6702 13.6629 15.8136 13.6562 11.9548C13.6562 11.7651 13.7194 11.72 13.9 11.7222C14.9364 11.729 15.9751 11.7312 17.0115 11.7222C17.2034 11.72 17.2531 11.7809 17.2486 11.9616C17.2373 12.4222 17.244 12.8851 17.244 13.3457C17.4947 13.0634 17.7024 12.7789 17.9575 12.5373C18.7478 11.7922 19.6849 11.4151 20.7755 11.4242C21.3761 11.4309 21.9677 11.4738 22.5457 11.6409C23.8689 12.0225 24.6388 12.9347 25.0046 14.2263C25.2801 15.1949 25.3298 16.1907 25.332 17.1887C25.3365 19.2931 25.3252 21.3998 25.3298 23.5042Z" fill="white"/>
</g>
<defs>
<clipPath id="clip0_391_375">
<rect width="30.4823" height="30.4823" fill="white" transform="translate(0.824219 0.184082)"/>
</clipPath>
</defs>
</svg>
