<svg width="482" height="529" viewBox="0 0 482 529" fill="none" xmlns="http://www.w3.org/2000/svg">
<path d="M56.5923 347.998L56.5902 347.995C56.0644 347.321 54.1638 344.607 52.3808 342.041C51.4925 340.763 50.6377 339.527 50.0049 338.611C49.6885 338.153 49.4276 337.775 49.2459 337.512L49.0355 337.207L48.9804 337.127L48.9663 337.106L48.9627 337.101L48.9618 337.1L48.9617 337.1C17.4663 291.318 0.441506 235.409 0.500151 177.934C0.575401 107.596 25.9482 40.1711 71.0397 -9.55206C116.13 -59.2734 177.252 -87.2328 240.995 -87.3159C304.739 -87.2328 365.861 -59.2734 410.951 -9.55206C456.043 40.1711 481.416 107.596 481.491 177.934C481.541 235.382 464.525 291.262 433.051 337.027L433.007 337.091L432.985 337.163L432.956 337.205L432.745 337.51C432.563 337.772 432.302 338.149 431.985 338.605C431.352 339.517 430.497 340.747 429.613 342.017C427.842 344.559 425.963 347.244 425.485 347.879C425.484 347.88 425.484 347.881 425.483 347.881L240.995 587.817L56.5923 347.998ZM329.13 177.934V177.933C329.13 158.732 323.967 139.958 314.289 123.986C304.61 108.014 290.849 95.5567 274.74 88.1984C258.629 80.8398 240.898 78.9135 223.792 82.6657C206.686 86.4178 190.98 95.6777 178.658 109.265C166.336 122.853 157.95 140.158 154.553 158.992C151.155 177.825 152.899 197.347 159.564 215.09C166.228 232.834 177.518 248.007 192.012 258.686C206.506 269.366 223.553 275.069 240.995 275.069H240.996C264.378 275.037 286.783 264.78 303.301 246.566C319.817 228.354 329.101 203.671 329.13 177.934Z" stroke="#4159A4"/>
</svg>
