<svg width="80" height="80" viewBox="0 0 80 80" fill="none" xmlns="http://www.w3.org/2000/svg">
<g clip-path="url(#clip0_77_701)">
<path d="M65.4333 80.0001C64.9332 79.7105 64.5566 79.3011 64.2139 78.8358C61.7771 75.5224 59.4499 72.1352 57.3438 68.6001C57.0549 68.1168 56.8497 68.0209 56.3356 68.3165C50.9759 71.3922 45.1877 72.8262 39.0269 72.6365C31.0689 72.3888 24.0972 69.5727 18.1038 64.3221C17.279 63.5991 17.275 63.6031 16.6234 64.4958C16.2389 65.0211 15.8723 65.5604 15.4658 66.0657C14.6927 67.0243 13.5411 67.0543 12.8178 66.0736C8.79695 60.6253 4.94548 55.069 2.13807 48.8677C1.33311 47.0902 0.623782 45.2608 0.522165 43.2776C0.328894 39.5288 1.56025 36.2754 4.02894 33.4833C5.07101 32.3049 6.30037 31.3443 7.69909 30.6213C8.07567 30.4275 8.26496 30.1559 8.39646 29.7525C11.4968 20.2218 17.5818 13.3475 26.6755 9.16132C27.0501 8.98756 27.2832 8.75389 27.4625 8.37043C29.9273 3.12377 34.0118 0.0900192 39.8359 0.00413941C45.646 -0.0817404 49.9119 2.72833 52.4662 7.963C54.0901 11.2903 54.108 14.7235 52.7512 18.1867C51.3584 21.7417 49.4875 25.0411 47.4631 28.2546C45.5902 31.2284 43.5957 34.1204 41.4856 36.9304C40.6548 38.0369 39.5011 38.0908 38.7021 37.0063C34.7311 31.6199 30.9235 26.1276 28.134 20.0041C27.1716 17.8911 26.3547 15.7221 26.4085 13.3395C26.4205 12.8362 26.2252 12.9121 25.9064 13.0838C21.8139 15.2987 18.4147 18.3105 15.6949 22.0872C14.2305 24.1204 13.0569 26.3213 12.1403 28.658C12.0945 28.7739 12.0726 28.8997 12.0208 29.0894C13.4952 28.9995 14.9079 28.9456 16.3266 29.1593C22.1845 30.0421 26.9744 35.0271 27.7116 40.9288C28.0782 43.8607 27.1975 46.4871 26.0459 49.0734C24.2925 53.0099 22.0231 56.6528 19.6022 60.1999C19.1878 60.807 19.2675 61.0946 19.7955 61.5759C24.0335 65.4405 28.945 67.955 34.5817 68.9596C41.6909 70.2278 48.4255 69.1154 54.7536 65.5863C55.2816 65.2927 55.3613 65.0571 55.0784 64.5158C54.1339 62.7203 53.319 60.8709 52.7372 58.9137C51.5557 54.9352 52.3845 51.2704 54.7377 48.0349C58.2544 43.1957 63.0722 41.3742 68.962 42.5765C69.5299 42.6924 69.7749 42.6744 69.8228 41.9714C70.3308 34.5977 68.5057 27.8911 64.188 21.8835C64.0665 21.7137 63.9449 21.546 63.8353 21.3682C63.3113 20.5034 63.4468 19.5767 64.1661 19.0714C64.8894 18.5642 65.8278 18.7439 66.4256 19.5468C66.9536 20.2558 67.4696 20.9768 67.9399 21.7257C71.7276 27.7493 73.3813 34.3321 73.0406 41.4301C73.0147 41.9754 73.0107 42.5346 72.8832 43.0599C72.7019 43.8108 72.9828 44.1963 73.5945 44.6357C77.8126 47.6554 79.8709 51.7817 79.4425 56.9824C79.2333 59.5268 78.0816 61.8276 76.9399 64.0804C74.2222 69.4349 70.8369 74.366 67.2883 79.1913C67.0353 79.5348 66.6866 79.7445 66.3678 80.0001C66.057 80.0001 65.7461 80.0001 65.4333 80.0001ZM40.0391 33.4513C42.8585 30.0421 47.7978 21.8795 49.4656 17.8651C50.0454 16.4691 50.5734 15.0391 50.5455 13.5032C50.402 5.71614 42.2547 0.815004 35.295 4.29413C31.1168 6.38321 28.1619 11.8735 30.2979 16.9884C31.1407 19.0075 32.0791 20.9728 33.1511 22.8781C35.2053 26.531 37.5505 29.9922 40.0391 33.4513ZM24.6213 42.8062C24.4878 37.7333 21.3078 33.683 16.8067 32.5046C12.2679 31.3183 7.54766 33.2456 5.1268 37.3039C3.20604 40.5234 3.30766 43.7868 4.82992 47.1501C7.2468 52.4907 10.4886 57.3179 13.824 62.0972C14.1149 62.5126 14.2484 62.3788 14.4676 62.0553C15.3622 60.7451 16.2947 59.4609 17.1734 58.1407C19.4946 54.6536 21.6963 51.0966 23.378 47.244C24.0454 45.7141 24.6312 44.1583 24.6213 42.8062ZM65.7023 45.3706C62.5243 45.4445 59.7209 46.7327 57.6487 49.407C54.9987 52.8282 54.8174 56.503 56.5967 60.4076C59.0135 65.7161 62.2274 70.5294 65.5569 75.2808C65.8916 75.7581 66.0191 75.5564 66.2462 75.2248C67.1249 73.9346 68.0375 72.6704 68.9042 71.3722C71.2295 67.8891 73.4311 64.3301 75.1128 60.4795C75.7803 58.9516 76.386 57.3998 76.3641 55.6882C76.2884 50.0001 71.5921 45.3726 65.7023 45.3706Z" fill="url(#paint0_linear_77_701)"/>
<path d="M63.0362 16.3352C63.0302 17.5634 61.6813 18.4003 60.703 17.7172C59.6011 16.9483 58.587 16.0456 57.5987 15.1308C57.0547 14.6295 57.0906 13.7827 57.525 13.1975C57.9294 12.6523 58.7304 12.3607 59.3341 12.6982C60.6532 13.4372 61.7909 14.4258 62.7891 15.5642C62.9864 15.7879 62.9824 16.0935 63.0362 16.3352Z" fill="url(#paint1_linear_77_701)"/>
<path d="M40.0248 22.0551C35.3903 22.0312 31.6524 18.2565 31.6823 13.6309C31.7122 8.95549 35.4959 5.22271 40.1663 5.26665C44.751 5.30859 48.473 9.13923 48.4311 13.7727C48.3913 18.3503 44.6056 22.0791 40.0248 22.0551ZM40.0806 18.8716C42.9179 18.8596 45.3189 16.427 45.2631 13.621C45.2053 10.7749 42.886 8.46617 40.0727 8.4482C37.2413 8.43222 34.8623 10.8149 34.8623 13.6689C34.8623 16.5269 37.2274 18.8836 40.0806 18.8716Z" fill="url(#paint2_linear_77_701)"/>
<path d="M14.1465 51.0785C9.54987 51.0865 5.75618 47.3018 5.74224 42.6903C5.7263 38.0987 9.52596 34.286 14.1246 34.28C18.7253 34.274 22.5209 38.0647 22.5269 42.6683C22.5309 47.2699 18.7432 51.0705 14.1465 51.0785ZM19.315 42.6483C19.2931 39.7644 16.948 37.4436 14.0848 37.4716C11.2176 37.4995 8.91626 39.8662 8.95213 42.7462C8.98799 45.5802 11.3351 47.907 14.1426 47.891C17.0058 47.875 19.339 45.5103 19.315 42.6483Z" fill="url(#paint3_linear_77_701)"/>
<path d="M65.696 64.286C60.9558 64.0823 57.2976 60.1778 57.5029 55.5423C57.7101 50.8928 61.6393 47.2998 66.3037 47.4935C70.7369 47.6773 74.4549 51.6837 74.2676 56.0755C74.0704 60.755 70.183 64.4778 65.696 64.286ZM60.7028 55.9277C60.7327 58.8177 63.0679 61.1185 65.943 61.0905C68.8082 61.0625 71.1075 58.6919 71.0657 55.8099C71.0239 52.9719 68.6727 50.6531 65.8653 50.6811C62.9902 50.707 60.6749 53.0637 60.7028 55.9277Z" fill="url(#paint4_linear_77_701)"/>
</g>
<defs>
<linearGradient id="paint0_linear_77_701" x1="40.0002" y1="0.00222778" x2="40.0002" y2="80.0001" gradientUnits="userSpaceOnUse">
<stop offset="0.035" stop-color="#29428D"/>
<stop offset="0.56" stop-color="#D33C92"/>
</linearGradient>
<linearGradient id="paint1_linear_77_701" x1="60.1155" y1="12.5541" x2="60.1155" y2="17.9622" gradientUnits="userSpaceOnUse">
<stop offset="0.035" stop-color="#29428D"/>
<stop offset="0.56" stop-color="#D33C92"/>
</linearGradient>
<linearGradient id="paint2_linear_77_701" x1="40.0568" y1="5.26627" x2="40.0568" y2="22.0553" gradientUnits="userSpaceOnUse">
<stop offset="0.035" stop-color="#29428D"/>
<stop offset="0.56" stop-color="#D33C92"/>
</linearGradient>
<linearGradient id="paint3_linear_77_701" x1="14.1346" y1="34.28" x2="14.1346" y2="51.0785" gradientUnits="userSpaceOnUse">
<stop offset="0.035" stop-color="#29428D"/>
<stop offset="0.56" stop-color="#D33C92"/>
</linearGradient>
<linearGradient id="paint4_linear_77_701" x1="65.8845" y1="47.4861" x2="65.8845" y2="64.2931" gradientUnits="userSpaceOnUse">
<stop offset="0.035" stop-color="#29428D"/>
<stop offset="0.56" stop-color="#D33C92"/>
</linearGradient>
<clipPath id="clip0_77_701">
<rect width="79" height="80" fill="white" transform="translate(0.5)"/>
</clipPath>
</defs>
</svg>
