<svg width="88" height="82" viewBox="0 0 88 82" fill="none" xmlns="http://www.w3.org/2000/svg">
<g clip-path="url(#clip0_77_733)">
<path d="M88.0002 81.1308C87.5134 81.8243 86.8452 82 86.0072 82C57.9972 81.9817 29.9871 81.9863 1.97711 81.984C0.3997 81.984 0.00247605 81.5871 0.00247605 80.0175C0.00247605 77.5994 -0.00211613 75.1813 0.00477214 72.7608C0.00706823 71.5335 0.486951 71.0567 1.72225 71.0567C29.9045 71.0545 58.0867 71.0567 86.2689 71.0408C87.045 71.0408 87.557 71.3601 88.0025 71.9076C88.0002 74.9851 88.0002 78.0579 88.0002 81.1308ZM44.0025 79.2533C52.7667 79.2533 61.5285 79.2533 70.2927 79.2533C74.9905 79.2533 79.686 79.2351 84.3838 79.2716C85.114 79.2761 85.3023 79.0754 85.2655 78.375C85.2058 77.1819 85.1921 75.982 85.2678 74.7912C85.3206 73.9676 85.0841 73.7669 84.2484 73.7692C57.4139 73.7943 30.5795 73.7897 3.74511 73.7897C3.60275 73.7897 3.4558 73.8057 3.31574 73.7874C2.85193 73.7235 2.73482 73.9334 2.74171 74.3691C2.76467 75.6786 2.79682 76.988 2.73253 78.2952C2.6935 79.0685 2.91622 79.2738 3.70837 79.2738C17.1405 79.2465 30.5726 79.2533 44.0025 79.2533Z" fill="url(#paint0_linear_77_733)"/>
<path d="M41.1483 41.0034C40.7947 38.1792 38.0531 35.7702 35.0039 35.5558C34.8317 35.5444 34.6595 35.5512 34.4896 35.5353C33.6561 35.4554 33.1441 34.9262 33.1487 34.1597C33.1556 33.3658 33.7227 32.7909 34.5998 32.8206C38.3424 32.9483 41.1299 34.6615 42.9759 37.8895C43.4007 38.6332 43.736 39.4294 43.8485 40.2803C43.9311 40.9031 44.2181 41.0673 44.8059 41.0126C45.6119 40.9373 46.4132 41.0331 47.1457 41.4095C48.6197 42.1623 49.4762 43.3691 49.4831 45.0139C49.5129 52.2683 49.5014 59.5227 49.4946 66.7794C49.4946 67.7216 48.9412 68.3124 48.133 68.3193C47.2995 68.3261 46.7553 67.7125 46.753 66.711C46.7484 59.7395 46.7507 52.7702 46.7507 45.7987C46.7507 44.1037 46.3856 43.7341 44.7026 43.7341C36.9143 43.7341 29.1236 43.7341 21.3353 43.7341C19.5971 43.7341 19.2504 44.0854 19.2504 45.8466C19.2504 52.6174 19.2504 59.3881 19.2504 66.1612C19.2504 66.4167 19.2619 66.6745 19.2458 66.93C19.1907 67.7467 18.6489 68.3033 17.9049 68.3193C17.1266 68.3353 16.5227 67.7627 16.5112 66.9026C16.4882 64.9111 16.4768 62.9195 16.5158 60.928C16.5273 60.3121 16.3964 60.0748 15.7259 60.1136C14.6697 60.1752 13.6066 60.1432 12.5481 60.125C11.6045 60.109 11.0098 59.5661 11.0098 58.7608C11.0098 57.9555 11.6045 57.4149 12.5504 57.4012C13.6388 57.3852 14.7271 57.3624 15.8132 57.4103C16.401 57.4354 16.5158 57.2187 16.5135 56.6848C16.4928 52.9573 16.4997 49.2297 16.5043 45.5044C16.5066 42.6711 18.1873 41.008 21.0483 41.0057C27.4337 41.0034 33.8191 41.0057 40.2046 41.0057C40.5168 41.0034 40.8291 41.0034 41.1483 41.0034Z" fill="url(#paint1_linear_77_733)"/>
<path d="M68.766 43.7341C64.8993 43.7341 61.035 43.7341 57.1684 43.7341C55.3361 43.7341 55.0009 44.0626 55.0009 45.8488C55.0009 52.647 55.0009 59.4474 55.0009 66.2456C55.0009 66.5307 55.0284 66.8205 54.9825 67.0988C54.8608 67.8356 54.4131 68.2691 53.6554 68.3124C52.9436 68.3535 52.3558 67.8151 52.2662 67.0714C52.2387 66.8478 52.2525 66.6174 52.2525 66.3893C52.2525 59.4474 52.2502 52.5055 52.2525 45.5659C52.2525 42.6642 53.9125 41.0057 56.8194 41.0034C63.175 41.0011 69.5329 41.0034 75.8884 41.0034C76.9423 41.0034 76.9676 40.992 76.5589 39.9974C75.4499 37.2941 73.4155 35.8204 70.4926 35.5489C70.3778 35.5375 70.263 35.5466 70.1505 35.5352C69.2895 35.4599 68.7223 34.8782 68.7591 34.1094C68.7958 33.3384 69.3928 32.8251 70.2745 32.8091C74.334 32.7293 78.3062 35.7382 79.3555 39.8308C79.6012 40.7935 79.9387 41.0536 80.9146 41.0308C83.4908 40.9669 85.2473 42.7326 85.2496 45.2785C85.2588 52.3915 85.2542 59.5022 85.2519 66.6151C85.2519 67.6919 84.7353 68.317 83.8788 68.317C83.0224 68.317 82.5058 67.6942 82.5058 66.6174C82.5035 59.6482 82.5035 52.6789 82.5035 45.7074C82.5035 44.1333 82.1062 43.7341 80.538 43.7341C76.6117 43.7341 72.6877 43.7341 68.766 43.7341Z" fill="url(#paint2_linear_77_733)"/>
<path d="M25.8723 0.0205097C28.134 0.0205097 30.3933 0.0159472 32.655 0.0205097C33.888 0.0250722 34.3862 0.499575 34.3702 1.72005C34.3564 2.91087 34.4804 4.10853 34.2577 5.29251C33.6377 8.57525 30.9214 10.909 27.576 10.9364C23.055 10.9706 18.534 10.95 14.013 10.9432C12.8902 10.9409 12.3713 10.439 12.3851 9.32806C12.3989 8.08021 12.268 6.8278 12.5091 5.58451C13.1336 2.37477 15.866 0.0706975 19.1746 0.0273535C21.4064 -0.00230291 23.6382 0.022791 25.8723 0.0205097ZM21.6567 8.21709C23.4293 8.21709 25.2019 8.21709 26.9744 8.21709C30.026 8.21481 31.647 6.55177 31.6424 3.49487C31.6424 2.90174 31.4909 2.73521 30.8847 2.73978C27.1972 2.76715 23.5096 2.75346 19.8221 2.75346C16.7132 2.75346 15.0876 4.42107 15.1128 7.51674C15.1174 8.06881 15.2575 8.2399 15.8246 8.23078C17.7671 8.19656 19.7119 8.21709 21.6567 8.21709Z" fill="url(#paint3_linear_77_733)"/>
<path d="M59.0327 10.9478C55.9996 10.9478 52.9665 10.9501 49.9333 10.9478C48.5832 10.9455 48.1148 10.4961 48.1332 9.16157C48.1493 7.97075 48.0253 6.77537 48.2572 5.58912C48.8794 2.40675 51.5888 0.0798647 54.8378 0.0342395C57.6987 -0.00682327 60.5619 -0.0113858 63.4229 0.0342395C67.0874 0.0935523 70.0287 3.05007 70.1183 6.69781C70.1389 7.57838 70.1343 8.46123 70.1229 9.34179C70.1068 10.4482 69.6063 10.941 68.4766 10.9455C65.3286 10.9546 62.1807 10.9478 59.0327 10.9478ZM59.0373 8.21713C61.5814 8.21713 64.1255 8.22169 66.6695 8.208C66.9313 8.20572 67.2872 8.38822 67.3836 7.86582C67.8704 5.21271 65.9141 2.78316 63.2025 2.75807C60.6584 2.73297 58.1143 2.75122 55.5702 2.75122C52.4636 2.75122 50.8357 4.41883 50.8633 7.51678C50.8678 8.07113 51.0125 8.23538 51.5773 8.22854C54.0617 8.19888 56.5507 8.21713 59.0373 8.21713Z" fill="url(#paint4_linear_77_733)"/>
<path d="M34.3775 16.416C34.3201 18.0608 34.5175 19.9405 34.0491 21.7952C32.7335 27.0011 27.604 30.6237 22.3299 30.0329C16.6884 29.4009 12.4498 24.8407 12.3832 19.3109C12.3671 17.9741 12.3717 16.635 12.3809 15.2982C12.3878 14.2967 12.9228 13.683 13.7563 13.6853C14.5874 13.6876 15.0972 14.3013 15.1293 15.305C15.1867 17.0662 14.9755 18.8341 15.2763 20.5861C15.9766 24.6559 19.71 27.5645 23.9119 27.3227C28.0425 27.0832 31.4729 23.6499 31.6038 19.5368C31.6773 17.2623 31.6221 14.9834 31.629 12.7067C31.6336 11.5683 32.148 10.9296 33.0342 10.9524C33.8838 10.9729 34.3706 11.5957 34.3752 12.6861C34.3798 13.8564 34.3775 15.0221 34.3775 16.416Z" fill="url(#paint5_linear_77_733)"/>
<path d="M70.1249 17.9011C70.2191 19.6485 70.04 21.6948 69.1445 23.6407C67.0023 28.2945 61.8728 30.9065 56.8903 29.8526C51.8251 28.7804 48.1743 24.3593 48.1284 19.2287C48.1169 17.9193 48.1192 16.6099 48.1284 15.3027C48.1376 14.2989 48.668 13.6876 49.5014 13.6898C50.3349 13.6921 50.8447 14.3035 50.8768 15.3073C50.9342 17.0684 50.723 18.8364 51.0238 20.5884C51.7241 24.6604 55.4552 27.569 59.6571 27.325C63.7877 27.0854 67.202 23.6521 67.3559 19.5413C67.4087 18.1497 67.3673 16.7536 67.3765 15.3574C67.3834 14.2967 67.9207 13.667 68.7794 13.6876C69.606 13.7081 70.1112 14.3172 70.1226 15.3346C70.1318 16.0738 70.1249 16.8129 70.1249 17.9011Z" fill="url(#paint6_linear_77_733)"/>
<path d="M2.76014 54.2347C2.76014 50.1672 2.70044 46.0975 2.77621 42.03C2.86576 37.0979 7.02627 32.9734 11.9376 32.8182C13.0351 32.784 13.6803 33.2334 13.7423 34.0775C13.8066 34.9421 13.1775 35.485 12.0409 35.5466C8.32816 35.7519 5.51544 38.7039 5.50856 42.468C5.49248 50.4045 5.50396 58.341 5.50167 66.2798C5.50167 66.5923 5.53381 66.9163 5.46264 67.2151C5.29961 67.8995 4.84269 68.3124 4.12172 68.3078C3.40304 68.3033 2.94841 67.8904 2.78769 67.2037C2.7234 66.9322 2.75325 66.6379 2.75325 66.3528C2.75095 62.3127 2.75325 58.2726 2.75325 54.2347C2.75554 54.2347 2.75784 54.2347 2.76014 54.2347Z" fill="url(#paint7_linear_77_733)"/>
<path d="M59.1728 38.1541C56.5782 38.1245 54.4841 37.1686 52.8057 35.3162C52.0893 34.5269 52.0778 33.7057 52.7391 33.1422C53.3774 32.6015 54.1237 32.7179 54.8423 33.4707C57.3382 36.085 60.927 36.0942 63.393 33.4935C64.1369 32.7088 64.9245 32.5947 65.5559 33.181C66.185 33.765 66.1414 34.5611 65.4044 35.3619C63.7144 37.2051 61.6066 38.1359 59.1728 38.1541Z" fill="url(#paint8_linear_77_733)"/>
<path d="M22.9084 38.1473C20.975 38.1268 18.8764 37.1846 17.198 35.3299C16.4908 34.5475 16.4655 33.7057 17.1015 33.1536C17.733 32.6061 18.4907 32.7179 19.2048 33.4639C21.7098 36.085 25.2641 36.1033 27.7554 33.5072C28.5223 32.7088 29.2731 32.5924 29.9137 33.1719C30.5589 33.7559 30.5176 34.5224 29.7966 35.3528C28.2582 37.1162 25.9254 38.1496 22.9084 38.1473Z" fill="url(#paint9_linear_77_733)"/>
<path d="M34.368 53.3109C34.3589 54.05 33.7274 54.6659 32.9858 54.6568C32.2396 54.6477 31.6242 54.0226 31.6334 53.2812C31.6426 52.5375 32.2694 51.9284 33.0156 51.9375C33.7619 51.9467 34.3772 52.5717 34.368 53.3109Z" fill="url(#paint10_linear_77_733)"/>
<path d="M68.7796 54.6568C68.0357 54.6727 67.3997 54.0682 67.3836 53.3268C67.3675 52.5854 67.9737 51.9558 68.7199 51.9375C69.4639 51.9215 70.0999 52.5261 70.1183 53.2675C70.1343 54.0043 69.5236 54.6385 68.7796 54.6568Z" fill="url(#paint11_linear_77_733)"/>
</g>
<defs>
<linearGradient id="paint0_linear_77_733" x1="44.0017" y1="71.0408" x2="44.0017" y2="82" gradientUnits="userSpaceOnUse">
<stop stop-color="#29428D"/>
<stop offset="1" stop-color="#D33C92"/>
</linearGradient>
<linearGradient id="paint1_linear_77_733" x1="30.2562" y1="32.8195" x2="30.2562" y2="68.3196" gradientUnits="userSpaceOnUse">
<stop stop-color="#29428D"/>
<stop offset="1" stop-color="#D33C92"/>
</linearGradient>
<linearGradient id="paint2_linear_77_733" x1="68.7521" y1="32.8076" x2="68.7521" y2="68.317" gradientUnits="userSpaceOnUse">
<stop stop-color="#29428D"/>
<stop offset="1" stop-color="#D33C92"/>
</linearGradient>
<linearGradient id="paint3_linear_77_733" x1="23.3771" y1="0.0127563" x2="23.3771" y2="10.9556" gradientUnits="userSpaceOnUse">
<stop stop-color="#29428D"/>
<stop offset="1" stop-color="#D33C92"/>
</linearGradient>
<linearGradient id="paint4_linear_77_733" x1="59.1234" y1="0.00170898" x2="59.1234" y2="10.9503" gradientUnits="userSpaceOnUse">
<stop stop-color="#29428D"/>
<stop offset="1" stop-color="#D33C92"/>
</linearGradient>
<linearGradient id="paint5_linear_77_733" x1="23.3753" y1="10.9518" x2="23.3753" y2="30.0959" gradientUnits="userSpaceOnUse">
<stop stop-color="#29428D"/>
<stop offset="1" stop-color="#D33C92"/>
</linearGradient>
<linearGradient id="paint6_linear_77_733" x1="59.134" y1="13.6871" x2="59.134" y2="30.0849" gradientUnits="userSpaceOnUse">
<stop stop-color="#29428D"/>
<stop offset="1" stop-color="#D33C92"/>
</linearGradient>
<linearGradient id="paint7_linear_77_733" x1="8.24231" y1="32.8164" x2="8.24231" y2="68.3079" gradientUnits="userSpaceOnUse">
<stop stop-color="#29428D"/>
<stop offset="1" stop-color="#D33C92"/>
</linearGradient>
<linearGradient id="paint8_linear_77_733" x1="59.1252" y1="32.8071" x2="59.1252" y2="38.1541" gradientUnits="userSpaceOnUse">
<stop stop-color="#29428D"/>
<stop offset="1" stop-color="#D33C92"/>
</linearGradient>
<linearGradient id="paint9_linear_77_733" x1="23.5071" y1="32.809" x2="23.5071" y2="38.1473" gradientUnits="userSpaceOnUse">
<stop stop-color="#29428D"/>
<stop offset="1" stop-color="#D33C92"/>
</linearGradient>
<linearGradient id="paint10_linear_77_733" x1="33.0007" y1="51.9374" x2="33.0007" y2="54.6569" gradientUnits="userSpaceOnUse">
<stop stop-color="#29428D"/>
<stop offset="1" stop-color="#D33C92"/>
</linearGradient>
<linearGradient id="paint11_linear_77_733" x1="68.7509" y1="51.9372" x2="68.7509" y2="54.6571" gradientUnits="userSpaceOnUse">
<stop stop-color="#29428D"/>
<stop offset="1" stop-color="#D33C92"/>
</linearGradient>
<clipPath id="clip0_77_733">
<rect width="88" height="82" fill="white"/>
</clipPath>
</defs>
</svg>
