<svg width="86" height="85" viewBox="0 0 86 85" fill="none" xmlns="http://www.w3.org/2000/svg">
<g clip-path="url(#clip0_77_708)">
<path d="M85.5 64.1368C85.1317 64.5918 84.7479 65.0158 84.0779 64.9403C83.3702 64.8604 82.9886 64.3943 82.9864 63.5375C82.9797 60.048 82.9575 56.5586 83.0019 53.0714C83.013 52.2657 82.8555 51.9771 81.9747 52.006C79.7362 52.0792 77.491 52.0526 75.2502 52.0149C74.6179 52.0038 74.456 52.1924 74.4715 52.8117C74.5359 55.4133 74.6357 58.017 74.2319 60.603C73.553 64.9603 71.0727 67.1667 66.6267 67.2688C63.8889 67.331 61.1468 67.3066 58.4069 67.2777C57.7724 67.271 57.5705 67.4153 57.5749 68.0879C57.606 72.6006 57.6126 77.1155 57.5705 81.6282C57.5638 82.4007 57.8167 82.525 58.5089 82.5206C63.3787 82.4939 68.2506 82.5095 73.1226 82.5028C73.8792 82.5006 74.5203 82.6338 74.6867 83.5083C74.8265 84.232 74.405 84.838 73.675 84.9534C73.3489 85.0044 73.0139 85 72.6811 85C67.7004 85.0022 62.7175 85.0022 57.7369 85.0022C51.8443 85.0022 45.9518 85.0022 40.0593 85.0022C39.8929 85.0022 39.7265 85.0044 39.5601 85.0022C38.4575 84.9778 37.9805 84.596 37.9827 83.7392C37.9872 82.8802 38.4486 82.5139 39.5756 82.5117C44.4476 82.5072 49.3174 82.4961 54.1894 82.525C54.8971 82.5294 55.13 82.3785 55.1189 81.6194C55.0701 78.7137 55.0657 75.8037 55.1212 72.898C55.1367 72.1145 54.866 71.9791 54.1783 72.0057C52.9336 72.0546 51.6868 72.0301 50.4422 72.0146C49.5015 72.0035 48.9979 71.5596 48.9913 70.7893C48.9846 70.0213 49.4904 69.5529 50.4222 69.5352C51.7223 69.5107 53.0246 69.4952 54.3247 69.5396C54.9481 69.5618 55.1278 69.3753 55.1145 68.7494C55.0812 67.2955 55.1145 67.2932 53.6968 67.2932C48.9913 67.2932 44.2879 67.2932 39.5823 67.2932C38.1092 67.2932 37.7254 66.8892 37.772 65.3954C37.9162 60.8804 40.7759 57.4554 45.477 56.1746C47.1143 55.7285 48.7871 55.5154 50.4799 55.5131C57.3442 55.4998 64.2084 55.4865 71.0704 55.5242C71.9046 55.5287 72.1243 55.2867 72.0311 54.5076C71.9557 53.8794 71.9801 53.2357 71.9911 52.5986C71.9978 52.1769 71.8425 51.9793 71.4077 52.026C71.2435 52.0437 71.0749 52.0282 70.9107 52.0282C56.9626 52.0282 43.0122 52.0282 29.0641 52.0282C27.9792 52.0282 27.9792 52.0282 27.9792 53.0803C27.9792 63.0203 27.9792 72.9624 27.977 82.9024C27.977 83.2331 27.9859 83.5705 27.9393 83.8968C27.8328 84.6204 27.3669 84.9489 26.6614 84.9201C25.9448 84.8912 25.5166 84.505 25.5055 83.7747C25.4833 82.1143 25.4567 80.4518 25.5055 78.7914C25.5255 78.0966 25.3191 77.9146 24.6314 77.9168C17.685 77.9413 10.7387 77.9413 3.79236 77.9168C3.12679 77.9146 2.95153 78.1055 2.96928 78.7515C3.01365 80.3008 2.98924 81.8524 2.98259 83.404C2.97815 84.4539 2.60321 84.9156 1.77347 84.9245C0.921537 84.9356 0.500009 84.434 0.500009 83.3596C0.497791 79.5128 0.500009 75.6638 0.500009 71.8148C0.500009 62.3166 0.500009 52.8184 0.500009 43.3202C0.500009 41.7131 0.832795 41.3868 2.45235 41.3846C3.74134 41.3846 5.03033 41.3846 6.46796 41.3846C3.74134 38.2015 3.60379 34.4724 3.606 30.7121C3.606 29.8065 4.06969 29.3892 5.03033 29.3825C7.05144 29.3692 9.07256 29.3492 11.0915 29.3936C11.8125 29.4092 12.1209 29.2649 12.0787 28.4547C12.0099 27.1473 12.0632 27.145 10.7387 27.1206C7.62605 27.0673 4.64873 24.8299 3.90551 22.0019C3.72581 21.3183 3.73024 20.6301 3.80346 19.942C3.88111 19.2095 4.40913 18.8499 5.02145 18.608C7.08472 17.7955 9.08143 17.9665 11.0049 19.0519C11.1735 19.1474 11.3355 19.2539 11.5019 19.3538C11.6372 19.4359 11.7748 19.5158 11.9988 19.649C12.0543 18.5236 12.2118 17.6069 11.2623 16.679C8.4203 13.911 8.72868 9.02985 11.7681 6.46606C12.7798 5.61369 13.5097 5.58261 14.6101 6.3462C17.8381 8.59034 18.3684 13.7002 15.5108 16.588C14.5857 17.5225 14.4526 18.406 14.599 19.538C14.9473 19.598 15.1315 19.3005 15.3799 19.1629C17.3367 18.0752 19.3601 17.6712 21.4988 18.5858C22.6613 19.083 22.9209 19.5691 22.8077 20.8677C22.4993 24.4214 19.3113 27.205 15.6506 27.1206C14.548 27.094 14.5413 27.094 14.5502 28.1617C14.5635 29.5779 14.3882 29.3648 15.8015 29.3736C17.5453 29.3847 19.2891 29.367 21.0329 29.3803C22.0312 29.387 22.5038 29.8087 22.4949 30.7743C22.4727 32.9607 22.3906 35.1449 21.7761 37.2714C21.3501 38.752 20.6557 40.0794 19.6352 41.247C19.877 41.4756 20.1366 41.3779 20.3651 41.3779C29.1928 41.3846 38.0227 41.3713 46.8503 41.4023C47.6224 41.4046 47.7844 41.156 47.74 40.4612C47.6845 39.6066 47.6756 38.7409 47.7422 37.8885C47.8021 37.1138 47.598 36.8608 46.7638 36.8674C41.6434 36.9118 36.5229 36.8896 31.4047 36.8896C29.0219 36.8896 27.713 35.58 27.7107 33.1938C27.7085 27.0474 27.7107 20.8987 27.7107 14.7523C27.7107 14.5858 27.7041 14.4193 27.7152 14.2551C27.7706 13.5026 28.2144 13.0675 28.9265 13.0542C29.6764 13.0387 30.18 13.4915 30.1911 14.2817C30.2155 16.1374 30.2 17.9931 30.2 19.8466C30.2 22.0885 30.2288 24.3326 30.1822 26.5746C30.1689 27.2627 30.3464 27.4469 31.043 27.4425C36.8557 27.4136 42.6661 27.4247 48.4788 27.4247C53.3774 27.4247 58.276 27.4092 63.1746 27.4425C63.9 27.4469 64.1441 27.2494 64.255 26.5191C64.894 22.3305 66.3449 18.4992 69.3799 15.4116C70.2385 14.5392 71.1925 13.7845 72.2907 13.2318C73.5774 12.5836 74.4249 13.0808 74.4294 14.5126C74.4427 18.4992 74.4538 22.4881 74.4183 26.4747C74.4116 27.2205 74.5869 27.5246 75.37 27.4358C75.9713 27.3692 76.5925 27.3692 77.1937 27.4358C78.0035 27.5246 78.2564 27.2915 78.252 26.4214C78.212 18.9454 78.2298 11.4693 78.2298 3.99107C78.2298 3.82459 78.2253 3.65811 78.2298 3.49163C78.2497 2.79908 77.9125 2.46612 77.2203 2.48609C77.0539 2.49053 76.8875 2.48609 76.7211 2.48609C61.7214 2.48609 46.7194 2.48609 31.7197 2.48609C30.3153 2.48609 30.2 2.60152 30.2 3.98663C30.2 5.1764 30.2089 6.3684 30.1955 7.55817C30.1867 8.4616 29.7052 8.97879 28.9265 8.96104C28.1744 8.9455 27.7218 8.4505 27.713 7.58481C27.6997 6.1442 27.6908 4.7036 27.7152 3.26522C27.744 1.5871 28.7757 0.639281 30.2 0C46.1981 0 62.1962 0 78.1943 0C80.1377 0.752487 80.8122 2.18421 80.7456 4.2308C80.6413 7.43608 80.7168 10.6458 80.7168 13.8555C80.7168 20.2439 80.6524 26.6345 80.7478 33.0229C80.7856 35.6022 79.0063 37.1205 76.8831 36.903C76.3351 36.8475 75.7738 36.934 75.2258 36.8852C74.6224 36.8319 74.385 37.0073 74.4205 37.6532C74.4737 38.6454 74.476 39.6465 74.4205 40.6388C74.3828 41.298 74.6446 41.4068 75.2325 41.4023C78.0523 41.3757 80.8721 41.4134 83.6919 41.3757C84.5305 41.3646 85.1384 41.6021 85.5 42.3746C85.5 49.6242 85.5 56.8805 85.5 64.1368ZM70.3272 49.5354C68.6677 48.0127 67.4342 46.4544 66.5645 44.6454C66.2673 44.0283 65.899 43.8574 65.2401 43.8574C44.8425 43.8751 24.4428 43.8707 4.04528 43.8707C3.87889 43.8707 3.71028 43.8862 3.54832 43.8685C3.10461 43.8174 2.97815 44.0194 2.98481 44.4434C3.00477 45.7996 3.04914 47.1603 2.97149 48.5121C2.92269 49.3623 3.18004 49.5554 4.01644 49.5554C25.7717 49.531 47.5248 49.5354 69.2801 49.5354C69.5463 49.5354 69.817 49.5354 70.3272 49.5354ZM14.2041 75.4396C17.6895 75.4396 21.1726 75.4263 24.658 75.453C25.277 75.4574 25.5188 75.3353 25.5099 74.6472C25.47 71.6861 25.4789 68.725 25.5055 65.7661C25.5099 65.1645 25.3679 64.9625 24.7268 64.9647C17.7294 64.9892 10.732 64.9847 3.73468 64.9692C3.1756 64.967 2.96928 65.0935 2.97371 65.6973C3.00255 68.7139 3.00477 71.7305 2.97371 74.7449C2.96706 75.3708 3.21554 75.4552 3.74799 75.4507C7.23558 75.4308 10.721 75.4396 14.2041 75.4396ZM14.2573 52.0282C10.7454 52.0282 7.23336 52.0415 3.72359 52.0149C3.14232 52.0104 2.97371 52.1813 2.97815 52.7607C3.00477 55.7751 3.00255 58.7917 2.97815 61.8061C2.97371 62.361 3.15342 62.4964 3.68587 62.4964C10.7099 62.4809 17.7316 62.4786 24.7556 62.4964C25.328 62.4986 25.5121 62.3455 25.5055 61.7595C25.4789 58.7717 25.4767 55.784 25.5077 52.7962C25.5144 52.168 25.3236 52.006 24.709 52.0126C21.2237 52.0415 17.7405 52.0282 14.2573 52.0282ZM53.7989 64.8005C57.7812 64.8005 61.7635 64.7983 65.7437 64.8027C66.4647 64.8027 67.1791 64.7561 67.889 64.6384C69.8014 64.3232 71.0327 63.26 71.5386 61.3732C71.7826 60.4609 71.8647 59.5264 71.9645 58.5897C72.02 58.0836 71.8381 57.9837 71.381 57.9859C64.1907 58.0059 57.0025 57.9881 49.8121 58.0348C47.9818 58.0459 46.1803 58.3899 44.4987 59.1713C42.4598 60.1191 41.051 61.6218 40.4786 63.8416C40.2323 64.796 40.2346 64.7983 41.1863 64.7983C45.3927 64.8005 49.5947 64.8005 53.7989 64.8005ZM47.0567 29.9197C41.7166 29.9197 36.3765 29.933 31.0364 29.9019C30.3309 29.8975 30.1334 30.1017 30.1845 30.781C30.2444 31.5801 30.1933 32.3858 30.2 33.1894C30.2066 34.1905 30.413 34.4013 31.4202 34.4035C34.1867 34.408 36.9533 34.4058 39.7199 34.4058C47.5226 34.4058 55.3253 34.3991 63.128 34.4191C63.7336 34.4213 63.9488 34.2992 63.8978 33.6466C63.8224 32.6833 63.8135 31.7088 63.8756 30.7432C63.9178 30.0884 63.747 29.9019 63.0769 29.9042C57.7369 29.933 52.3968 29.9197 47.0567 29.9197ZM71.8603 47.5288C71.8603 37.1294 71.8603 26.8942 71.8603 16.5947C70.4825 17.6379 69.158 19.4492 68.2506 21.5025C66.8064 24.7766 66.3249 28.2416 66.3205 31.782C66.3138 36.0639 66.9173 40.2215 69.0538 44.0283C69.7726 45.3068 70.6534 46.4611 71.8603 47.5288ZM13.0105 31.8708C10.9362 31.8708 8.86179 31.8886 6.78743 31.8597C6.23501 31.8509 6.07749 32.0218 6.11299 32.5634C6.21282 34.0573 6.36147 35.5423 6.8074 36.9784C7.43082 38.9806 8.61775 40.4501 10.7409 40.9717C12.0188 41.2869 13.3145 41.3002 14.6123 41.1071C16.8509 40.7742 18.3107 39.5 19.0872 37.398C19.6707 35.8219 19.8615 34.1838 19.9546 32.519C19.9835 31.9951 19.8215 31.8575 19.3179 31.862C17.2147 31.8842 15.1115 31.8708 13.0105 31.8708ZM78.7201 43.8707C77.5043 43.8707 76.2863 43.8862 75.0705 43.8618C74.629 43.8529 74.4183 43.9506 74.4271 44.45C74.4538 45.9439 74.4515 47.4378 74.4271 48.9317C74.4205 49.4111 74.5935 49.5443 75.0528 49.5399C77.4865 49.5221 79.9203 49.5243 82.3541 49.5376C82.7934 49.5399 83.0041 49.4489 82.993 48.9472C82.9642 47.4533 82.9664 45.9594 82.993 44.4656C83.0019 43.9861 82.8333 43.8507 82.3696 43.8596C81.1538 43.8884 79.9358 43.8707 78.7201 43.8707ZM54.1139 41.3846C55.3009 41.3846 56.4856 41.3713 57.6725 41.3912C58.094 41.3979 58.2582 41.2692 58.2493 40.8274C58.2249 39.6954 58.2227 38.5633 58.2493 37.4335C58.2604 36.9784 58.0652 36.883 57.6592 36.8852C55.3696 36.8985 53.0801 36.9052 50.7905 36.8808C50.278 36.8763 50.2026 37.1094 50.2092 37.5311C50.2248 38.6077 50.2403 39.6843 50.2048 40.7608C50.1871 41.298 50.4067 41.4068 50.8881 41.3935C51.9619 41.3646 53.0379 41.3846 54.1139 41.3846ZM60.7009 39.0561C60.7097 39.0561 60.7208 39.0561 60.7297 39.0583C60.7297 39.6643 60.7475 40.2725 60.723 40.8763C60.7075 41.2758 60.865 41.3979 61.2511 41.3935C62.3803 41.3757 63.5096 41.3735 64.6388 41.3935C65.1003 41.4023 65.1336 41.207 65.0182 40.8385C64.661 39.7087 64.4036 38.5522 64.2461 37.378C64.1929 36.9829 64.011 36.863 63.6493 36.8896C63.4031 36.9074 63.1524 36.8785 62.9061 36.8963C62.2006 36.9451 61.2688 36.5833 60.8562 37.0606C60.5078 37.4668 60.7319 38.3702 60.7009 39.0561ZM74.436 31.9774C74.436 32.6899 74.456 33.2715 74.4294 33.8486C74.4094 34.2837 74.5802 34.428 75.0062 34.4124C75.7494 34.3858 76.4949 34.3969 77.2381 34.4058C77.9347 34.4146 78.2409 34.0706 78.2298 33.3869C78.2187 32.7809 78.2275 32.1749 78.2275 31.5667C78.2275 29.9175 78.2275 29.9064 76.6013 29.9241C75.918 29.9308 75.035 29.6311 74.6024 30.0418C74.121 30.5013 74.5159 31.4069 74.436 31.9774ZM11.7903 11.9244C11.8369 13.0808 12.1786 14.1286 13.0083 14.9943C13.2501 15.2473 13.4054 15.2562 13.6716 15.0076C15.2313 13.5581 15.2579 10.2529 13.7205 8.81454C13.4387 8.55039 13.2546 8.53263 12.9839 8.81897C12.1608 9.69133 11.8325 10.7435 11.7903 11.9244ZM15.7549 24.619C17.7072 24.6279 19.6152 23.2983 20.1765 21.5824C20.385 20.9453 20.1965 20.6879 19.5442 20.6102C17.6939 20.3926 15.6684 21.5447 14.9074 23.2849C14.4016 24.4481 14.5058 24.6146 15.7549 24.619ZM10.7897 24.6234C11.8524 24.6234 12.0299 24.5102 11.9079 23.9242C11.4886 21.9154 8.87289 20.2284 6.85399 20.6479C6.3659 20.75 6.23501 20.9276 6.38809 21.4359C6.93164 23.2405 8.80633 24.6234 10.7897 24.6234Z" fill="url(#paint0_linear_77_708)"/>
<path d="M85.4999 84.0744C85.1561 84.6071 84.7501 85.0288 84.0335 84.9179C83.2614 84.798 82.9796 84.3119 82.9819 83.5749C82.9885 81.3885 82.9841 79.2021 82.9841 77.0156C82.9841 75.0778 82.9974 73.14 82.9774 71.2044C82.9708 70.4652 83.044 69.7838 83.8671 69.5329C84.7013 69.2777 85.1405 69.8126 85.4999 70.4519C85.4999 74.9912 85.4999 79.5328 85.4999 84.0744Z" fill="url(#paint1_linear_77_708)"/>
<path d="M14.173 71.453C12.7088 71.453 11.2423 71.4597 9.77805 71.4508C8.85068 71.4441 8.35594 70.998 8.36038 70.2055C8.36704 69.4197 8.864 68.9669 9.79358 68.9647C12.7798 68.9558 15.7637 68.9558 18.7499 68.9647C19.6795 68.9669 20.1964 69.4131 20.2164 70.1811C20.2386 70.978 19.7017 71.4464 18.7322 71.4508C17.2125 71.4575 15.6927 71.453 14.173 71.453Z" fill="url(#paint2_linear_77_708)"/>
<path d="M14.3108 58.4987C12.7911 58.4987 11.2714 58.5053 9.74944 58.4965C8.86202 58.4898 8.38946 58.0747 8.36284 57.3134C8.33622 56.5165 8.83096 56.0237 9.73835 56.0192C12.7778 56.0081 15.8194 56.0059 18.8589 56.0192C19.713 56.0237 20.21 56.5098 20.2166 57.2579C20.2211 58.0037 19.7153 58.4854 18.87 58.4942C17.3525 58.5076 15.8328 58.4987 14.3108 58.4987Z" fill="url(#paint3_linear_77_708)"/>
</g>
<defs>
<linearGradient id="paint0_linear_77_708" x1="42.9995" y1="0" x2="42.9995" y2="85.0032" gradientUnits="userSpaceOnUse">
<stop stop-color="#29428D"/>
<stop offset="1" stop-color="#D33C92"/>
</linearGradient>
<linearGradient id="paint1_linear_77_708" x1="84.2385" y1="69.4678" x2="84.2385" y2="84.9357" gradientUnits="userSpaceOnUse">
<stop stop-color="#29428D"/>
<stop offset="1" stop-color="#D33C92"/>
</linearGradient>
<linearGradient id="paint2_linear_77_708" x1="14.2887" y1="68.958" x2="14.2887" y2="71.4554" gradientUnits="userSpaceOnUse">
<stop stop-color="#29428D"/>
<stop offset="1" stop-color="#D33C92"/>
</linearGradient>
<linearGradient id="paint3_linear_77_708" x1="14.2892" y1="56.0101" x2="14.2892" y2="58.5016" gradientUnits="userSpaceOnUse">
<stop stop-color="#29428D"/>
<stop offset="1" stop-color="#D33C92"/>
</linearGradient>
<clipPath id="clip0_77_708">
<rect width="85" height="85" fill="white" transform="translate(0.5)"/>
</clipPath>
</defs>
</svg>
